#usda 1.0
(
defaultPrim = "Coin"
metersPerUnit = 1
upAxis = "Y"
doc = "Dice Throw – coin die. Generated by Tools/GenerateDiceModels.swift; open in Reality Composer Pro."
)

def Xform "Coin" (
kind = "component"
)
{
def Mesh "Geometry"
{
    int[] faceVertexCounts = [3, 3, 3, 3, 3, 3, 3, 3, 3, 3, 3, 3, 3, 3, 3, 3, 3, 3, 3, 3, 3, 3, 3, 3, 3, 3, 3, 3, 3, 3, 3, 3, 3, 3, 3, 3, 3, 3, 3, 3, 3, 3, 3, 3, 3, 3, 3, 3, 3, 3, 3, 3, 3, 3, 3, 3, 3, 3, 3, 3, 3, 3, 3, 3, 3, 3, 3, 3, 3, 3, 3, 3, 3, 3, 3, 3, 3, 3, 3, 3, 4, 4, 4, 4, 4, 4, 4, 4, 4, 4, 4, 4, 4, 4, 4, 4, 4, 4, 4, 4, 4, 4, 4, 4, 4, 4, 4, 4, 4, 4, 4, 4, 4, 4, 4, 4, 4, 4, 4, 4]
    int[] faceVertexIndices = [80, 1, 0, 80, 2, 1, 80, 3, 2, 80, 4, 3, 80, 5, 4, 80, 6, 5, 80, 7, 6, 80, 8, 7, 80, 9, 8, 80, 10, 9, 80, 11, 10, 80, 12, 11, 80, 13, 12, 80, 14, 13, 80, 15, 14, 80, 16, 15, 80, 17, 16, 80, 18, 17, 80, 19, 18, 80, 20, 19, 80, 21, 20, 80, 22, 21, 80, 23, 22, 80, 24, 23, 80, 25, 24, 80, 26, 25, 80, 27, 26, 80, 28, 27, 80, 29, 28, 80, 30, 29, 80, 31, 30, 80, 32, 31, 80, 33, 32, 80, 34, 33, 80, 35, 34, 80, 36, 35, 80, 37, 36, 80, 38, 37, 80, 39, 38, 80, 0, 39, 81, 40, 41, 81, 41, 42, 81, 42, 43, 81, 43, 44, 81, 44, 45, 81, 45, 46, 81, 46, 47, 81, 47, 48, 81, 48, 49, 81, 49, 50, 81, 50, 51, 81, 51, 52, 81, 52, 53, 81, 53, 54, 81, 54, 55, 81, 55, 56, 81, 56, 57, 81, 57, 58, 81, 58, 59, 81, 59, 60, 81, 60, 61, 81, 61, 62, 81, 62, 63, 81, 63, 64, 81, 64, 65, 81, 65, 66, 81, 66, 67, 81, 67, 68, 81, 68, 69, 81, 69, 70, 81, 70, 71, 81, 71, 72, 81, 72, 73, 81, 73, 74, 81, 74, 75, 81, 75, 76, 81, 76, 77, 81, 77, 78, 81, 78, 79, 81, 79, 40, 0, 1, 41, 40, 1, 2, 42, 41, 2, 3, 43, 42, 3, 4, 44, 43, 4, 5, 45, 44, 5, 6, 46, 45, 6, 7, 47, 46, 7, 8, 48, 47, 8, 9, 49, 48, 9, 10, 50, 49, 10, 11, 51, 50, 11, 12, 52, 51, 12, 13, 53, 52, 13, 14, 54, 53, 14, 15, 55, 54, 15, 16, 56, 55, 16, 17, 57, 56, 17, 18, 58, 57, 18, 19, 59, 58, 19, 20, 60, 59, 20, 21, 61, 60, 21, 22, 62, 61, 22, 23, 63, 62, 23, 24, 64, 63, 24, 25, 65, 64, 25, 26, 66, 65, 26, 27, 67, 66, 27, 28, 68, 67, 28, 29, 69, 68, 29, 30, 70, 69, 30, 31, 71, 70, 31, 32, 72, 71, 32, 33, 73, 72, 33, 34, 74, 73, 34, 35, 75, 74, 35, 36, 76, 75, 36, 37, 77, 76, 37, 38, 78, 77, 38, 39, 79, 78, 39, 0, 40, 79]
    point3f[] points = [(0.5, 0.055, 0), (0.49384, 0.055, 0.078217), (0.47553, 0.055, 0.15451), (0.4455, 0.055, 0.227), (0.40451, 0.055, 0.29389), (0.35355, 0.055, 0.35355), (0.29389, 0.055, 0.40451), (0.227, 0.055, 0.4455), (0.15451, 0.055, 0.47553), (0.078217, 0.055, 0.49384), (3.7749e-08, 0.055, 0.5), (-0.078217, 0.055, 0.49384), (-0.15451, 0.055, 0.47553), (-0.227, 0.055, 0.4455), (-0.29389, 0.055, 0.40451), (-0.35355, 0.055, 0.35355), (-0.40451, 0.055, 0.29389), (-0.4455, 0.055, 0.227), (-0.47553, 0.055, 0.15451), (-0.49384, 0.055, 0.078217), (-0.5, 0.055, 7.5498e-08), (-0.49384, 0.055, -0.078217), (-0.47553, 0.055, -0.15451), (-0.4455, 0.055, -0.227), (-0.40451, 0.055, -0.29389), (-0.35355, 0.055, -0.35355), (-0.29389, 0.055, -0.40451), (-0.227, 0.055, -0.4455), (-0.15451, 0.055, -0.47553), (-0.078217, 0.055, -0.49384), (5.9624e-09, 0.055, -0.5), (0.078217, 0.055, -0.49384), (0.15451, 0.055, -0.47553), (0.227, 0.055, -0.4455), (0.29389, 0.055, -0.40451), (0.35355, 0.055, -0.35355), (0.40451, 0.055, -0.29389), (0.4455, 0.055, -0.227), (0.47553, 0.055, -0.15451), (0.49384, 0.055, -0.078217), (0.5, -0.055, 0), (0.49384, -0.055, 0.078217), (0.47553, -0.055, 0.15451), (0.4455, -0.055, 0.227), (0.40451, -0.055, 0.29389), (0.35355, -0.055, 0.35355), (0.29389, -0.055, 0.40451), (0.227, -0.055, 0.4455), (0.15451, -0.055, 0.47553), (0.078217, -0.055, 0.49384), (3.7749e-08, -0.055, 0.5), (-0.078217, -0.055, 0.49384), (-0.15451, -0.055, 0.47553), (-0.227, -0.055, 0.4455), (-0.29389, -0.055, 0.40451), (-0.35355, -0.055, 0.35355), (-0.40451, -0.055, 0.29389), (-0.4455, -0.055, 0.227), (-0.47553, -0.055, 0.15451), (-0.49384, -0.055, 0.078217), (-0.5, -0.055, 7.5498e-08), (-0.49384, -0.055, -0.078217), (-0.47553, -0.055, -0.15451), (-0.4455, -0.055, -0.227), (-0.40451, -0.055, -0.29389), (-0.35355, -0.055, -0.35355), (-0.29389, -0.055, -0.40451), (-0.227, -0.055, -0.4455), (-0.15451, -0.055, -0.47553), (-0.078217, -0.055, -0.49384), (5.9624e-09, -0.055, -0.5), (0.078217, -0.055, -0.49384), (0.15451, -0.055, -0.47553), (0.227, -0.055, -0.4455), (0.29389, -0.055, -0.40451), (0.35355, -0.055, -0.35355), (0.40451, -0.055, -0.29389), (0.4455, -0.055, -0.227), (0.47553, -0.055, -0.15451), (0.49384, -0.055, -0.078217), (0, 0.055, 0), (0, -0.055, 0)]
    normal3f[] normals = [(0, 1, 0), (0, 1, 0), (0, 1, 0), (0, 1, 0), (0, 1, 0), (0, 1, 0), (0, 1, 0), (0, 1, 0), (0, 1, 0), (0, 1, 0), (0, 1, 0), (0, 1, 0), (0, 1, 0), (0, 1, 0), (0, 1, 0), (0, 1, 0), (0, 1, 0), (0, 1, 0), (0, 1, 0), (0, 1, 0), (0, 1, 0), (0, 1, 0), (0, 1, 0), (0, 1, 0), (0, 1, 0), (0, 1, 0), (0, 1, 0), (0, 1, 0), (0, 1, 0), (0, 1, 0), (0, 1, 0), (0, 1, 0), (0, 1, 0), (0, 1, 0), (0, 1, 0), (0, 1, 0), (0, 1, 0), (0, 1, 0), (0, 1, 0), (0, 1, 0), (0, 1, 0), (0, 1, 0), (0, 1, 0), (0, 1, 0), (0, 1, 0), (0, 1, 0), (0, 1, 0), (0, 1, 0), (0, 1, 0), (0, 1, 0), (0, 1, 0), (0, 1, 0), (0, 1, 0), (0, 1, 0), (0, 1, 0), (0, 1, 0), (0, 1, 0), (0, 1, 0), (0, 1, 0), (0, 1, 0), (0, 1, 0), (0, 1, 0), (0, 1, 0), (0, 1, 0), (0, 1, 0), (0, 1, 0), (0, 1, 0), (0, 1, 0), (0, 1, 0), (0, 1, 0), (0, 1, 0), (0, 1, 0), (0, 1, 0), (0, 1, 0), (0, 1, 0), (0, 1, 0), (0, 1, 0), (0, 1, 0), (0, 1, 0), (0, 1, 0), (0, 1, 0), (0, 1, 0), (0, 1, 0), (0, 1, 0), (0, 1, 0), (0, 1, 0), (0, 1, 0), (0, 1, 0), (0, 1, 0), (0, 1, 0), (0, 1, 0), (0, 1, 0), (0, 1, 0), (0, 1, 0), (0, 1, 0), (0, 1, 0), (0, 1, 0), (0, 1, 0), (0, 1, 0), (0, 1, 0), (0, 1, 0), (0, 1, 0), (0, 1, 0), (0, 1, 0), (0, 1, 0), (0, 1, 0), (0, 1, 0), (0, 1, 0), (0, 1, 0), (0, 1, 0), (0, 1, 0), (0, 1, 0), (0, 1, 0), (0, 1, 0), (0, 1, 0), (0, 1, 0), (0, 1, 0), (0, 1, 0), (0, 1, 0), (0, 1, 0), (0, -1, 0), (0, -1, 0), (0, -1, 0), (0, -1, 0), (0, -1, 0), (0, -1, 0), (0, -1, 0), (0, -1, 0), (0, -1, 0), (0, -1, 0), (0, -1, 0), (0, -1, 0), (0, -1, 0), (0, -1, 0), (0, -1, 0), (0, -1, 0), (0, -1, 0), (0, -1, 0), (0, -1, 0), (0, -1, 0), (0, -1, 0), (0, -1, 0), (0, -1, 0), (0, -1, 0), (0, -1, 0), (0, -1, 0), (0, -1, 0), (0, -1, 0), (0, -1, 0), (0, -1, 0), (0, -1, 0), (0, -1, 0), (0, -1, 0), (0, -1, 0), (0, -1, 0), (0, -1, 0), (0, -1, 0), (0, -1, 0), (0, -1, 0), (0, -1, 0), (0, -1, 0), (0, -1, 0), (0, -1, 0), (0, -1, 0), (0, -1, 0), (0, -1, 0), (0, -1, 0), (0, -1, 0), (0, -1, 0), (0, -1, 0), (0, -1, 0), (0, -1, 0), (0, -1, 0), (0, -1, 0), (0, -1, 0), (0, -1, 0), (0, -1, 0), (0, -1, 0), (0, -1, 0), (0, -1, 0), (0, -1, 0), (0, -1, 0), (0, -1, 0), (0, -1, 0), (0, -1, 0), (0, -1, 0), (0, -1, 0), (0, -1, 0), (0, -1, 0), (0, -1, 0), (0, -1, 0), (0, -1, 0), (0, -1, 0), (0, -1, 0), (0, -1, 0), (0, -1, 0), (0, -1, 0), (0, -1, 0), (0, -1, 0), (0, -1, 0), (0, -1, 0), (0, -1, 0), (0, -1, 0), (0, -1, 0), (0, -1, 0), (0, -1, 0), (0, -1, 0), (0, -1, 0), (0, -1, 0), (0, -1, 0), (0, -1, 0), (0, -1, 0), (0, -1, 0), (0, -1, 0), (0, -1, 0), (0, -1, 0), (0, -1, 0), (0, -1, 0), (0, -1, 0), (0, -1, 0), (0, -1, 0), (0, -1, 0), (0, -1, 0), (0, -1, 0), (0, -1, 0), (0, -1, 0), (0, -1, 0), (0, -1, 0), (0, -1, 0), (0, -1, 0), (0, -1, 0), (0, -1, 0), (0, -1, 0), (0, -1, 0), (0, -1, 0), (0, -1, 0), (0, -1, 0), (0, -1, 0), (0, -1, 0), (0, -1, 0), (1, 0, 0), (0.98769, 0, 0.15643), (0.98769, 0, 0.15643), (1, 0, 0), (0.98769, 0, 0.15643), (0.95106, 0, 0.30902), (0.95106, 0, 0.30902), (0.98769, 0, 0.15643), (0.95106, 0, 0.30902), (0.89101, 0, 0.45399), (0.89101, 0, 0.45399), (0.95106, 0, 0.30902), (0.89101, 0, 0.45399), (0.80902, 0, 0.58779), (0.80902, 0, 0.58779), (0.89101, 0, 0.45399), (0.80902, 0, 0.58779), (0.70711, 0, 0.70711), (0.70711, 0, 0.70711), (0.80902, 0, 0.58779), (0.70711, 0, 0.70711), (0.58779, 0, 0.80902), (0.58779, 0, 0.80902), (0.70711, 0, 0.70711), (0.58779, 0, 0.80902), (0.45399, 0, 0.89101), (0.45399, 0, 0.89101), (0.58779, 0, 0.80902), (0.45399, 0, 0.89101), (0.30902, 0, 0.95106), (0.30902, 0, 0.95106), (0.45399, 0, 0.89101), (0.30902, 0, 0.95106), (0.15643, 0, 0.98769), (0.15643, 0, 0.98769), (0.30902, 0, 0.95106), (0.15643, 0, 0.98769), (7.5498e-08, 0, 1), (7.5498e-08, 0, 1), (0.15643, 0, 0.98769), (7.5498e-08, 0, 1), (-0.15643, 0, 0.98769), (-0.15643, 0, 0.98769), (7.5498e-08, 0, 1), (-0.15643, 0, 0.98769), (-0.30902, 0, 0.95106), (-0.30902, 0, 0.95106), (-0.15643, 0, 0.98769), (-0.30902, 0, 0.95106), (-0.45399, 0, 0.89101), (-0.45399, 0, 0.89101), (-0.30902, 0, 0.95106), (-0.45399, 0, 0.89101), (-0.58779, 0, 0.80902), (-0.58779, 0, 0.80902), (-0.45399, 0, 0.89101), (-0.58779, 0, 0.80902), (-0.70711, 0, 0.70711), (-0.70711, 0, 0.70711), (-0.58779, 0, 0.80902), (-0.70711, 0, 0.70711), (-0.80902, 0, 0.58779), (-0.80902, 0, 0.58779), (-0.70711, 0, 0.70711), (-0.80902, 0, 0.58779), (-0.89101, 0, 0.45399), (-0.89101, 0, 0.45399), (-0.80902, 0, 0.58779), (-0.89101, 0, 0.45399), (-0.95106, 0, 0.30902), (-0.95106, 0, 0.30902), (-0.89101, 0, 0.45399), (-0.95106, 0, 0.30902), (-0.98769, 0, 0.15643), (-0.98769, 0, 0.15643), (-0.95106, 0, 0.30902), (-0.98769, 0, 0.15643), (-1, 0, 1.51e-07), (-1, 0, 1.51e-07), (-0.98769, 0, 0.15643), (-1, 0, 1.51e-07), (-0.98769, 0, -0.15643), (-0.98769, 0, -0.15643), (-1, 0, 1.51e-07), (-0.98769, 0, -0.15643), (-0.95106, 0, -0.30902), (-0.95106, 0, -0.30902), (-0.98769, 0, -0.15643), (-0.95106, 0, -0.30902), (-0.89101, 0, -0.45399), (-0.89101, 0, -0.45399), (-0.95106, 0, -0.30902), (-0.89101, 0, -0.45399), (-0.80902, 0, -0.58779), (-0.80902, 0, -0.58779), (-0.89101, 0, -0.45399), (-0.80902, 0, -0.58779), (-0.70711, 0, -0.70711), (-0.70711, 0, -0.70711), (-0.80902, 0, -0.58779), (-0.70711, 0, -0.70711), (-0.58779, 0, -0.80902), (-0.58779, 0, -0.80902), (-0.70711, 0, -0.70711), (-0.58779, 0, -0.80902), (-0.45399, 0, -0.89101), (-0.45399, 0, -0.89101), (-0.58779, 0, -0.80902), (-0.45399, 0, -0.89101), (-0.30902, 0, -0.95106), (-0.30902, 0, -0.95106), (-0.45399, 0, -0.89101), (-0.30902, 0, -0.95106), (-0.15643, 0, -0.98769), (-0.15643, 0, -0.98769), (-0.30902, 0, -0.95106), (-0.15643, 0, -0.98769), (1.1925e-08, 0, -1), (1.1925e-08, 0, -1), (-0.15643, 0, -0.98769), (1.1925e-08, 0, -1), (0.15643, 0, -0.98769), (0.15643, 0, -0.98769), (1.1925e-08, 0, -1), (0.15643, 0, -0.98769), (0.30902, 0, -0.95106), (0.30902, 0, -0.95106), (0.15643, 0, -0.98769), (0.30902, 0, -0.95106), (0.45399, 0, -0.89101), (0.45399, 0, -0.89101), (0.30902, 0, -0.95106), (0.45399, 0, -0.89101), (0.58779, 0, -0.80902), (0.58779, 0, -0.80902), (0.45399, 0, -0.89101), (0.58779, 0, -0.80902), (0.70711, 0, -0.70711), (0.70711, 0, -0.70711), (0.58779, 0, -0.80902), (0.70711, 0, -0.70711), (0.80902, 0, -0.58779), (0.80902, 0, -0.58779), (0.70711, 0, -0.70711), (0.80902, 0, -0.58779), (0.89101, 0, -0.45399), (0.89101, 0, -0.45399), (0.80902, 0, -0.58779), (0.89101, 0, -0.45399), (0.95106, 0, -0.30902), (0.95106, 0, -0.30902), (0.89101, 0, -0.45399), (0.95106, 0, -0.30902), (0.98769, 0, -0.15643), (0.98769, 0, -0.15643), (0.95106, 0, -0.30902), (0.98769, 0, -0.15643), (1, 0, 0), (1, 0, 0), (0.98769, 0, -0.15643)] (
        interpolation = "faceVarying"
    )
    texCoord2f[] primvars:st = [(0.25, 0.75), (0.45741, 0.78285), (0.46, 0.75), (0.25, 0.75), (0.44972, 0.81489), (0.45741, 0.78285), (0.25, 0.75), (0.43711, 0.84534), (0.44972, 0.81489), (0.25, 0.75), (0.41989, 0.87343), (0.43711, 0.84534), (0.25, 0.75), (0.39849, 0.89849), (0.41989, 0.87343), (0.25, 0.75), (0.37343, 0.91989), (0.39849, 0.89849), (0.25, 0.75), (0.34534, 0.93711), (0.37343, 0.91989), (0.25, 0.75), (0.31489, 0.94972), (0.34534, 0.93711), (0.25, 0.75), (0.28285, 0.95741), (0.31489, 0.94972), (0.25, 0.75), (0.25, 0.96), (0.28285, 0.95741), (0.25, 0.75), (0.21715, 0.95741), (0.25, 0.96), (0.25, 0.75), (0.18511, 0.94972), (0.21715, 0.95741), (0.25, 0.75), (0.15466, 0.93711), (0.18511, 0.94972), (0.25, 0.75), (0.12657, 0.91989), (0.15466, 0.93711), (0.25, 0.75), (0.10151, 0.89849), (0.12657, 0.91989), (0.25, 0.75), (0.080106, 0.87343), (0.10151, 0.89849), (0.25, 0.75), (0.062889, 0.84534), (0.080106, 0.87343), (0.25, 0.75), (0.050278, 0.81489), (0.062889, 0.84534), (0.25, 0.75), (0.042585, 0.78285), (0.050278, 0.81489), (0.25, 0.75), (0.04, 0.75), (0.042585, 0.78285), (0.25, 0.75), (0.042585, 0.71715), (0.04, 0.75), (0.25, 0.75), (0.050278, 0.68511), (0.042585, 0.71715), (0.25, 0.75), (0.062889, 0.65466), (0.050278, 0.68511), (0.25, 0.75), (0.080106, 0.62657), (0.062889, 0.65466), (0.25, 0.75), (0.10151, 0.60151), (0.080106, 0.62657), (0.25, 0.75), (0.12657, 0.58011), (0.10151, 0.60151), (0.25, 0.75), (0.15466, 0.56289), (0.12657, 0.58011), (0.25, 0.75), (0.18511, 0.55028), (0.15466, 0.56289), (0.25, 0.75), (0.21715, 0.54259), (0.18511, 0.55028), (0.25, 0.75), (0.25, 0.54), (0.21715, 0.54259), (0.25, 0.75), (0.28285, 0.54259), (0.25, 0.54), (0.25, 0.75), (0.31489, 0.55028), (0.28285, 0.54259), (0.25, 0.75), (0.34534, 0.56289), (0.31489, 0.55028), (0.25, 0.75), (0.37343, 0.58011), (0.34534, 0.56289), (0.25, 0.75), (0.39849, 0.60151), (0.37343, 0.58011), (0.25, 0.75), (0.41989, 0.62656), (0.39849, 0.60151), (0.25, 0.75), (0.43711, 0.65466), (0.41989, 0.62656), (0.25, 0.75), (0.44972, 0.68511), (0.43711, 0.65466), (0.25, 0.75), (0.45741, 0.71715), (0.44972, 0.68511), (0.25, 0.75), (0.46, 0.75), (0.45741, 0.71715), (0.75, 0.75), (0.96, 0.75), (0.95741, 0.78285), (0.75, 0.75), (0.95741, 0.78285), (0.94972, 0.81489), (0.75, 0.75), (0.94972, 0.81489), (0.93711, 0.84534), (0.75, 0.75), (0.93711, 0.84534), (0.91989, 0.87343), (0.75, 0.75), (0.91989, 0.87343), (0.89849, 0.89849), (0.75, 0.75), (0.89849, 0.89849), (0.87343, 0.91989), (0.75, 0.75), (0.87343, 0.91989), (0.84534, 0.93711), (0.75, 0.75), (0.84534, 0.93711), (0.81489, 0.94972), (0.75, 0.75), (0.81489, 0.94972), (0.78285, 0.95741), (0.75, 0.75), (0.78285, 0.95741), (0.75, 0.96), (0.75, 0.75), (0.75, 0.96), (0.71715, 0.95741), (0.75, 0.75), (0.71715, 0.95741), (0.68511, 0.94972), (0.75, 0.75), (0.68511, 0.94972), (0.65466, 0.93711), (0.75, 0.75), (0.65466, 0.93711), (0.62657, 0.91989), (0.75, 0.75), (0.62657, 0.91989), (0.60151, 0.89849), (0.75, 0.75), (0.60151, 0.89849), (0.58011, 0.87343), (0.75, 0.75), (0.58011, 0.87343), (0.56289, 0.84534), (0.75, 0.75), (0.56289, 0.84534), (0.55028, 0.81489), (0.75, 0.75), (0.55028, 0.81489), (0.54259, 0.78285), (0.75, 0.75), (0.54259, 0.78285), (0.54, 0.75), (0.75, 0.75), (0.54, 0.75), (0.54259, 0.71715), (0.75, 0.75), (0.54259, 0.71715), (0.55028, 0.68511), (0.75, 0.75), (0.55028, 0.68511), (0.56289, 0.65466), (0.75, 0.75), (0.56289, 0.65466), (0.58011, 0.62657), (0.75, 0.75), (0.58011, 0.62657), (0.60151, 0.60151), (0.75, 0.75), (0.60151, 0.60151), (0.62657, 0.58011), (0.75, 0.75), (0.62657, 0.58011), (0.65466, 0.56289), (0.75, 0.75), (0.65466, 0.56289), (0.68511, 0.55028), (0.75, 0.75), (0.68511, 0.55028), (0.71715, 0.54259), (0.75, 0.75), (0.71715, 0.54259), (0.75, 0.54), (0.75, 0.75), (0.75, 0.54), (0.78285, 0.54259), (0.75, 0.75), (0.78285, 0.54259), (0.81489, 0.55028), (0.75, 0.75), (0.81489, 0.55028), (0.84534, 0.56289), (0.75, 0.75), (0.84534, 0.56289), (0.87343, 0.58011), (0.75, 0.75), (0.87343, 0.58011), (0.89849, 0.60151), (0.75, 0.75), (0.89849, 0.60151), (0.91989, 0.62656), (0.75, 0.75), (0.91989, 0.62656), (0.93711, 0.65466), (0.75, 0.75), (0.93711, 0.65466), (0.94972, 0.68511), (0.75, 0.75), (0.94972, 0.68511), (0.95741, 0.71715), (0.75, 0.75), (0.95741, 0.71715), (0.96, 0.75), (0, 0.42), (0.025, 0.42), (0.025, 0.08), (0, 0.08), (0.025, 0.42), (0.05, 0.42), (0.05, 0.08), (0.025, 0.08), (0.05, 0.42), (0.075, 0.42), (0.075, 0.08), (0.05, 0.08), (0.075, 0.42), (0.1, 0.42), (0.1, 0.08), (0.075, 0.08), (0.1, 0.42), (0.125, 0.42), (0.125, 0.08), (0.1, 0.08), (0.125, 0.42), (0.15, 0.42), (0.15, 0.08), (0.125, 0.08), (0.15, 0.42), (0.175, 0.42), (0.175, 0.08), (0.15, 0.08), (0.175, 0.42), (0.2, 0.42), (0.2, 0.08), (0.175, 0.08), (0.2, 0.42), (0.225, 0.42), (0.225, 0.08), (0.2, 0.08), (0.225, 0.42), (0.25, 0.42), (0.25, 0.08), (0.225, 0.08), (0.25, 0.42), (0.275, 0.42), (0.275, 0.08), (0.25, 0.08), (0.275, 0.42), (0.3, 0.42), (0.3, 0.08), (0.275, 0.08), (0.3, 0.42), (0.325, 0.42), (0.325, 0.08), (0.3, 0.08), (0.325, 0.42), (0.35, 0.42), (0.35, 0.08), (0.325, 0.08), (0.35, 0.42), (0.375, 0.42), (0.375, 0.08), (0.35, 0.08), (0.375, 0.42), (0.4, 0.42), (0.4, 0.08), (0.375, 0.08), (0.4, 0.42), (0.425, 0.42), (0.425, 0.08), (0.4, 0.08), (0.425, 0.42), (0.45, 0.42), (0.45, 0.08), (0.425, 0.08), (0.45, 0.42), (0.475, 0.42), (0.475, 0.08), (0.45, 0.08), (0.475, 0.42), (0.5, 0.42), (0.5, 0.08), (0.475, 0.08), (0.5, 0.42), (0.525, 0.42), (0.525, 0.08), (0.5, 0.08), (0.525, 0.42), (0.55, 0.42), (0.55, 0.08), (0.525, 0.08), (0.55, 0.42), (0.575, 0.42), (0.575, 0.08), (0.55, 0.08), (0.575, 0.42), (0.6, 0.42), (0.6, 0.08), (0.575, 0.08), (0.6, 0.42), (0.625, 0.42), (0.625, 0.08), (0.6, 0.08), (0.625, 0.42), (0.65, 0.42), (0.65, 0.08), (0.625, 0.08), (0.65, 0.42), (0.675, 0.42), (0.675, 0.08), (0.65, 0.08), (0.675, 0.42), (0.7, 0.42), (0.7, 0.08), (0.675, 0.08), (0.7, 0.42), (0.725, 0.42), (0.725, 0.08), (0.7, 0.08), (0.725, 0.42), (0.75, 0.42), (0.75, 0.08), (0.725, 0.08), (0.75, 0.42), (0.775, 0.42), (0.775, 0.08), (0.75, 0.08), (0.775, 0.42), (0.8, 0.42), (0.8, 0.08), (0.775, 0.08), (0.8, 0.42), (0.825, 0.42), (0.825, 0.08), (0.8, 0.08), (0.825, 0.42), (0.85, 0.42), (0.85, 0.08), (0.825, 0.08), (0.85, 0.42), (0.875, 0.42), (0.875, 0.08), (0.85, 0.08), (0.875, 0.42), (0.9, 0.42), (0.9, 0.08), (0.875, 0.08), (0.9, 0.42), (0.925, 0.42), (0.925, 0.08), (0.9, 0.08), (0.925, 0.42), (0.95, 0.42), (0.95, 0.08), (0.925, 0.08), (0.95, 0.42), (0.975, 0.42), (0.975, 0.08), (0.95, 0.08), (0.975, 0.42), (1, 0.42), (1, 0.08), (0.975, 0.08)] (
        interpolation = "faceVarying"
    )
    uniform token subdivisionScheme = "none"
    rel material:binding = </Coin/Materials/DieMaterial>
}

def Scope "Materials"
{
    def Material "DieMaterial"
    {
        token outputs:surface.connect = </Coin/Materials/DieMaterial/PBRShader.outputs:surface>

        def Shader "PBRShader"
        {
            uniform token info:id = "UsdPreviewSurface"
            color3f inputs:diffuseColor.connect = </Coin/Materials/DieMaterial/DiffuseTexture.outputs:rgb>
            float inputs:metallic = 0.85
            float inputs:roughness = 0.3
            token outputs:surface
        }

        def Shader "STReader"
        {
            uniform token info:id = "UsdPrimvarReader_float2"
            token inputs:varname = "st"
            float2 outputs:result
        }

        def Shader "DiffuseTexture"
        {
            uniform token info:id = "UsdUVTexture"
            asset inputs:file = @coin_diffuse.png@
            float2 inputs:st.connect = </Coin/Materials/DieMaterial/STReader.outputs:result>
            token inputs:wrapS = "repeat"
            token inputs:wrapT = "repeat"
            float3 outputs:rgb
        }
    }
}
}
