#usda 1.0
(
defaultPrim = "D10"
metersPerUnit = 1
upAxis = "Y"
doc = "Dice Throw – d10 die. Generated by Tools/GenerateDiceModels.swift; open in Reality Composer Pro."
)

def Xform "D10" (
kind = "component"
)
{
def Mesh "Geometry"
{
    int[] faceVertexCounts = [3, 3, 3, 3, 3, 3, 3, 3, 3, 3, 4, 4, 4, 4, 4, 4, 4, 4, 4, 4, 4, 4, 4, 4, 4, 5, 5, 4, 4, 4, 4, 4]
    int[] faceVertexIndices = [0, 1, 2, 3, 4, 5, 6, 7, 8, 9, 10, 11, 12, 13, 14, 15, 16, 17, 18, 19, 20, 21, 22, 23, 24, 25, 26, 27, 28, 29, 30, 31, 32, 33, 34, 35, 36, 37, 38, 39, 40, 41, 42, 43, 44, 45, 46, 47, 48, 49, 50, 51, 52, 53, 54, 55, 56, 57, 58, 59, 60, 61, 62, 63, 64, 65, 66, 67, 68, 69, 70, 71, 72, 73, 74, 75, 76, 77, 78, 79, 80, 81, 82, 83, 84, 85, 86, 87, 88, 89, 90, 91, 92, 93, 94, 95, 96, 97, 98, 99, 100, 101, 102, 103, 104, 105, 106, 107, 108, 109, 110, 111, 112, 113, 114, 115, 116, 117, 118, 119]
    point3f[] points = [(0.21404, 0.024288, 0.57748), (0.61536, 0.024288, 0.025108), (0.034558, 0.55862, 0.025108), (-0.48308, 0.024288, 0.38201), (0.16628, 0.024288, 0.593), (-0.0132, 0.55862, 0.040625), (-0.51259, 0.024288, -0.34139), (-0.51259, 0.024288, 0.34139), (-0.042716, 0.55862, 0), (0.16628, 0.024288, -0.593), (-0.48308, 0.024288, -0.38201), (-0.0132, 0.55862, -0.040625), (0.61536, 0.024288, -0.025108), (0.21403, 0.024288, -0.57748), (0.034558, 0.55862, -0.025108), (0.61536, -0.024288, 0.025108), (0.21404, -0.024288, 0.57748), (0.034558, -0.55862, 0.025108), (0.16628, -0.024288, 0.593), (-0.48308, -0.024288, 0.38201), (-0.0132, -0.55862, 0.040625), (-0.51259, -0.024288, 0.34139), (-0.51259, -0.024288, -0.34139), (-0.042716, -0.55862, 0), (-0.48308, -0.024288, -0.38201), (0.16628, -0.024288, -0.593), (-0.0132, -0.55862, -0.040625), (0.21403, -0.024288, -0.57748), (0.61536, -0.024288, -0.025108), (0.034558, -0.55862, -0.025108), (-0.51259, -0.024288, 0.34139), (-0.042716, -0.55862, 0), (-0.0132, -0.55862, 0.040625), (-0.48308, -0.024288, 0.38201), (0.21403, -0.024288, -0.57748), (0.034558, -0.55862, -0.025108), (-0.0132, -0.55862, -0.040625), (0.16628, -0.024288, -0.593), (0.61536, 0.024288, -0.025108), (0.034558, 0.55862, -0.025108), (0.034558, 0.55862, 0.025108), (0.61536, 0.024288, 0.025108), (-0.0132, 0.55862, -0.040625), (-0.48308, 0.024288, -0.38201), (-0.51259, 0.024288, -0.34139), (-0.042716, 0.55862, 0), (0.16628, -0.024288, -0.593), (-0.48308, -0.024288, -0.38201), (-0.48308, 0.024288, -0.38201), (0.16628, 0.024288, -0.593), (0.034558, 0.55862, -0.025108), (0.21403, 0.024288, -0.57748), (0.16628, 0.024288, -0.593), (-0.0132, 0.55862, -0.040625), (0.16628, -0.024288, 0.593), (-0.0132, -0.55862, 0.040625), (0.034558, -0.55862, 0.025108), (0.21404, -0.024288, 0.57748), (0.034558, -0.55862, -0.025108), (0.61536, -0.024288, -0.025108), (0.61536, -0.024288, 0.025108), (0.034558, -0.55862, 0.025108), (-0.48308, -0.024288, 0.38201), (0.16628, -0.024288, 0.593), (0.16628, 0.024288, 0.593), (-0.48308, 0.024288, 0.38201), (-0.48308, -0.024288, -0.38201), (-0.0132, -0.55862, -0.040625), (-0.042716, -0.55862, 0), (-0.51259, -0.024288, -0.34139), (-0.042716, 0.55862, 0), (-0.51259, 0.024288, 0.34139), (-0.48308, 0.024288, 0.38201), (-0.0132, 0.55862, 0.040625), (-0.0132, 0.55862, 0.040625), (0.16628, 0.024288, 0.593), (0.21404, 0.024288, 0.57748), (0.034558, 0.55862, 0.025108), (-0.51259, -0.024288, -0.34139), (-0.51259, -0.024288, 0.34139), (-0.51259, 0.024288, 0.34139), (-0.51259, 0.024288, -0.34139), (0.21404, -0.024288, 0.57748), (0.61536, -0.024288, 0.025108), (0.61536, 0.024288, 0.025108), (0.21404, 0.024288, 0.57748), (0.61536, -0.024288, -0.025108), (0.21403, -0.024288, -0.57748), (0.21403, 0.024288, -0.57748), (0.61536, 0.024288, -0.025108), (0.034558, 0.55862, -0.025108), (-0.0132, 0.55862, -0.040625), (-0.042716, 0.55862, 0), (-0.0132, 0.55862, 0.040625), (0.034558, 0.55862, 0.025108), (-0.0132, -0.55862, 0.040625), (-0.042716, -0.55862, 0), (-0.0132, -0.55862, -0.040625), (0.034558, -0.55862, -0.025108), (0.034558, -0.55862, 0.025108), (0.61536, -0.024288, 0.025108), (0.61536, -0.024288, -0.025108), (0.61536, 0.024288, -0.025108), (0.61536, 0.024288, 0.025108), (0.16628, 0.024288, 0.593), (0.16628, -0.024288, 0.593), (0.21404, -0.024288, 0.57748), (0.21404, 0.024288, 0.57748), (-0.51259, 0.024288, 0.34139), (-0.51259, -0.024288, 0.34139), (-0.48308, -0.024288, 0.38201), (-0.48308, 0.024288, 0.38201), (-0.48308, 0.024288, -0.38201), (-0.48308, -0.024288, -0.38201), (-0.51259, -0.024288, -0.34139), (-0.51259, 0.024288, -0.34139), (0.21403, 0.024288, -0.57748), (0.21403, -0.024288, -0.57748), (0.16628, -0.024288, -0.593), (0.16628, 0.024288, -0.593)]
    normal3f[] normals = [(0.60753, 0.66036, 0.4414), (0.60753, 0.66036, 0.4414), (0.60753, 0.66036, 0.4414), (-0.23206, 0.66036, 0.7142), (-0.23206, 0.66036, 0.7142), (-0.23206, 0.66036, 0.7142), (-0.75095, 0.66036, 0), (-0.75095, 0.66036, 0), (-0.75095, 0.66036, 0), (-0.23206, 0.66036, -0.7142), (-0.23206, 0.66036, -0.7142), (-0.23206, 0.66036, -0.7142), (0.60753, 0.66036, -0.4414), (0.60753, 0.66036, -0.4414), (0.60753, 0.66036, -0.4414), (0.60753, -0.66036, 0.4414), (0.60753, -0.66036, 0.4414), (0.60753, -0.66036, 0.4414), (-0.23206, -0.66036, 0.7142), (-0.23206, -0.66036, 0.7142), (-0.23206, -0.66036, 0.7142), (-0.75095, -0.66036, -0), (-0.75095, -0.66036, -0), (-0.75095, -0.66036, -0), (-0.23206, -0.66036, -0.7142), (-0.23206, -0.66036, -0.7142), (-0.23206, -0.66036, -0.7142), (0.60753, -0.66036, -0.4414), (0.60753, -0.66036, -0.4414), (0.60753, -0.66036, -0.4414), (-0.54775, -0.73593, 0.39796), (-0.54775, -0.73593, 0.39796), (-0.54775, -0.73593, 0.39796), (-0.54775, -0.73593, 0.39796), (0.20922, -0.73593, -0.64392), (0.20922, -0.73593, -0.64392), (0.20922, -0.73593, -0.64392), (0.20922, -0.73593, -0.64392), (0.67706, 0.73593, -1.1592e-07), (0.67706, 0.73593, -1.1592e-07), (0.67706, 0.73593, -1.1592e-07), (0.67706, 0.73593, -1.1592e-07), (-0.54775, 0.73593, -0.39796), (-0.54775, 0.73593, -0.39796), (-0.54775, 0.73593, -0.39796), (-0.54775, 0.73593, -0.39796), (-0.30902, -2.1957e-07, -0.95106), (-0.30902, -2.1957e-07, -0.95106), (-0.30902, -2.1957e-07, -0.95106), (-0.30902, -2.1957e-07, -0.95106), (0.20922, 0.73593, -0.64392), (0.20922, 0.73593, -0.64392), (0.20922, 0.73593, -0.64392), (0.20922, 0.73593, -0.64392), (0.20922, -0.73593, 0.64392), (0.20922, -0.73593, 0.64392), (0.20922, -0.73593, 0.64392), (0.20922, -0.73593, 0.64392), (0.67706, -0.73593, -6.3608e-07), (0.67706, -0.73593, -6.3608e-07), (0.67706, -0.73593, -6.3608e-07), (0.67706, -0.73593, -6.3608e-07), (-0.30902, -1.9583e-09, 0.95106), (-0.30902, -1.9583e-09, 0.95106), (-0.30902, -1.9583e-09, 0.95106), (-0.30902, -1.9583e-09, 0.95106), (-0.54775, -0.73593, -0.39796), (-0.54775, -0.73593, -0.39796), (-0.54775, -0.73593, -0.39796), (-0.54775, -0.73593, -0.39796), (-0.54775, 0.73593, 0.39796), (-0.54775, 0.73593, 0.39796), (-0.54775, 0.73593, 0.39796), (-0.54775, 0.73593, 0.39796), (0.20922, 0.73593, 0.64392), (0.20922, 0.73593, 0.64392), (0.20922, 0.73593, 0.64392), (0.20922, 0.73593, 0.64392), (-1, 0, 0), (-1, 0, 0), (-1, 0, 0), (-1, 0, 0), (0.80902, 1.1598e-07, 0.58779), (0.80902, 1.1598e-07, 0.58779), (0.80902, 1.1598e-07, 0.58779), (0.80902, 1.1598e-07, 0.58779), (0.80902, 3.3876e-09, -0.58779), (0.80902, 3.3876e-09, -0.58779), (0.80902, 3.3876e-09, -0.58779), (0.80902, 3.3876e-09, -0.58779), (0, 1, 0), (0, 1, 0), (0, 1, 0), (0, 1, 0), (0, 1, 0), (0, -1, 0), (0, -1, 0), (0, -1, 0), (0, -1, 0), (0, -1, 0), (1, 0, -1.187e-06), (1, 0, -1.187e-06), (1, 0, -1.187e-06), (1, 0, -1.187e-06), (0.30902, 0, 0.95106), (0.30902, 0, 0.95106), (0.30902, 0, 0.95106), (0.30902, 0, 0.95106), (-0.80902, 0, 0.58779), (-0.80902, 0, 0.58779), (-0.80902, 0, 0.58779), (-0.80902, 0, 0.58779), (-0.80902, 0, -0.58778), (-0.80902, 0, -0.58778), (-0.80902, 0, -0.58778), (-0.80902, 0, -0.58778), (0.30902, 0, -0.95106), (0.30902, 0, -0.95106), (0.30902, 0, -0.95106), (0.30902, 0, -0.95106)] (
        interpolation = "faceVarying"
    )
    texCoord2f[] primvars:st = [(0.21701, 0.83333), (0.092897, 0.94831), (0.06509, 0.71836), (0.46701, 0.83333), (0.3429, 0.94831), (0.31509, 0.71836), (0.71701, 0.83333), (0.5929, 0.94831), (0.56509, 0.71836), (0.96701, 0.83333), (0.8429, 0.94831), (0.81509, 0.71836), (0.21701, 0.5), (0.092897, 0.61497), (0.06509, 0.38503), (0.46701, 0.5), (0.3429, 0.61497), (0.31509, 0.38503), (0.71701, 0.5), (0.5929, 0.61497), (0.56509, 0.38503), (0.96701, 0.5), (0.8429, 0.61497), (0.81509, 0.38503), (0.21701, 0.16667), (0.092897, 0.28164), (0.06509, 0.051692), (0.46701, 0.16667), (0.3429, 0.28164), (0.31509, 0.051692), (0.63167, 0.026949), (0.63167, 0.30638), (0.61833, 0.30638), (0.61833, 0.026949), (0.63167, 0.026949), (0.63167, 0.30638), (0.61833, 0.30638), (0.61833, 0.026949), (0.63167, 0.026949), (0.63167, 0.30638), (0.61833, 0.30638), (0.61833, 0.026949), (0.63167, 0.026949), (0.63167, 0.30638), (0.61833, 0.30638), (0.61833, 0.026949), (0.63245, 0.02702), (0.63245, 0.30631), (0.61755, 0.30631), (0.61755, 0.02702), (0.63167, 0.026949), (0.63167, 0.30638), (0.61833, 0.30638), (0.61833, 0.026949), (0.63167, 0.026949), (0.63167, 0.30638), (0.61833, 0.30638), (0.61833, 0.026949), (0.63167, 0.026949), (0.63167, 0.30638), (0.61833, 0.30638), (0.61833, 0.026949), (0.63245, 0.02702), (0.63245, 0.30631), (0.61755, 0.30631), (0.61755, 0.02702), (0.63167, 0.026949), (0.63167, 0.30638), (0.61833, 0.30638), (0.61833, 0.026949), (0.63167, 0.026949), (0.63167, 0.30638), (0.61833, 0.30638), (0.61833, 0.026949), (0.63167, 0.026949), (0.63167, 0.30638), (0.61833, 0.30638), (0.61833, 0.026949), (0.63245, 0.02702), (0.63245, 0.30631), (0.61755, 0.30631), (0.61755, 0.02702), (0.63245, 0.02702), (0.63245, 0.30631), (0.61755, 0.30631), (0.61755, 0.02702), (0.63245, 0.02702), (0.63245, 0.30631), (0.61755, 0.30631), (0.61755, 0.02702), (0.73, 0.16667), (0.65745, 0.29981), (0.54005, 0.24896), (0.54005, 0.084377), (0.65745, 0.033519), (0.73, 0.16667), (0.65745, 0.29981), (0.54005, 0.24896), (0.54005, 0.084377), (0.65745, 0.033519), (0.698, 0.066042), (0.698, 0.26729), (0.552, 0.26729), (0.552, 0.066042), (0.70047, 0.069328), (0.70047, 0.26401), (0.54953, 0.26401), (0.54953, 0.069328), (0.70047, 0.069328), (0.70047, 0.264), (0.54953, 0.264), (0.54953, 0.069328), (0.70047, 0.069328), (0.70047, 0.26401), (0.54953, 0.26401), (0.54953, 0.069328), (0.70047, 0.069328), (0.70047, 0.26401), (0.54953, 0.26401), (0.54953, 0.069328)] (
        interpolation = "faceVarying"
    )
    uniform token subdivisionScheme = "none"
    rel material:binding = </D10/Materials/DieMaterial>
}

def Scope "Materials"
{
    def Material "DieMaterial"
    {
        token outputs:surface.connect = </D10/Materials/DieMaterial/PBRShader.outputs:surface>

        def Shader "PBRShader"
        {
            uniform token info:id = "UsdPreviewSurface"
            color3f inputs:diffuseColor.connect = </D10/Materials/DieMaterial/DiffuseTexture.outputs:rgb>
            float inputs:metallic = 0
            float inputs:roughness = 0.38
            token outputs:surface
        }

        def Shader "STReader"
        {
            uniform token info:id = "UsdPrimvarReader_float2"
            token inputs:varname = "st"
            float2 outputs:result
        }

        def Shader "DiffuseTexture"
        {
            uniform token info:id = "UsdUVTexture"
            asset inputs:file = @d10_diffuse.png@
            float2 inputs:st.connect = </D10/Materials/DieMaterial/STReader.outputs:result>
            token inputs:wrapS = "repeat"
            token inputs:wrapT = "repeat"
            float3 outputs:rgb
        }
    }
}
}
