#usda 1.0
(
defaultPrim = "D12"
metersPerUnit = 1
upAxis = "Y"
doc = "Dice Throw – d12 die. Generated by Tools/GenerateDiceModels.swift; open in Reality Composer Pro."
)

def Xform "D12" (
kind = "component"
)
{
def Mesh "Geometry"
{
    int[] faceVertexCounts = [5, 5, 5, 5, 5, 5, 5, 5, 5, 5, 5, 5, 4, 4, 4, 4, 4, 4, 4, 4, 4, 4, 4, 4, 4, 4, 4, 4, 4, 4]
    int[] faceVertexIndices = [0, 1, 2, 3, 4, 5, 6, 7, 8, 9, 10, 11, 12, 13, 14, 15, 16, 17, 18, 19, 20, 21, 22, 23, 24, 25, 26, 27, 28, 29, 30, 31, 32, 33, 34, 35, 36, 37, 38, 39, 40, 41, 42, 43, 44, 45, 46, 47, 48, 49, 50, 51, 52, 53, 54, 55, 56, 57, 58, 59, 60, 61, 62, 63, 64, 65, 66, 67, 68, 69, 70, 71, 72, 73, 74, 75, 76, 77, 78, 79, 80, 81, 82, 83, 84, 85, 86, 87, 88, 89, 90, 91, 92, 93, 94, 95, 96, 97, 98, 99, 100, 101, 102, 103, 104, 105, 106, 107, 108, 109, 110, 111, 112, 113, 114, 115, 116, 117, 118, 119, 120, 121, 122, 123, 124, 125, 126, 127, 128, 129, 130, 131]
    point3f[] points = [(-0.32967, 0.36841, 0.38321), (0.0056521, 0.24033, 0.59045), (0.0056521, -0.17415, 0.59045), (0.34098, 0.36841, 0.38321), (0.21289, 0.57566, 0.047885), (0.36841, 0.38321, -0.32967), (0.24033, 0.59045, 0.0056521), (-0.17415, 0.59045, 0.0056521), (0.36841, 0.38321, 0.34098), (0.57566, 0.047885, 0.21289), (0.38321, -0.32967, 0.36841), (0.59045, 0.0056521, 0.24033), (0.59045, 0.0056521, -0.17415), (0.38321, 0.34098, 0.36841), (0.047885, 0.21289, 0.57566), (0.21289, 0.57566, -0.047885), (0.34098, 0.36841, -0.38321), (0.0056521, 0.24033, -0.59045), (0.0056521, -0.17415, -0.59045), (-0.32967, 0.36841, -0.38321), (0.57566, -0.047885, 0.21289), (0.36841, -0.38321, 0.34098), (0.24033, -0.59045, 0.0056521), (-0.17415, -0.59045, 0.0056521), (0.36841, -0.38321, -0.32967), (-0.047885, 0.21289, 0.57566), (-0.38321, 0.34098, 0.36841), (-0.59045, 0.0056521, 0.24033), (-0.59045, 0.0056521, -0.17415), (-0.38321, -0.32967, 0.36841), (0.21289, -0.57566, 0.047885), (0.34098, -0.36841, 0.38321), (0.0056521, -0.24033, 0.59045), (0.0056521, 0.17415, 0.59045), (-0.32967, -0.36841, 0.38321), (-0.57566, 0.047885, 0.21289), (-0.36841, 0.38321, 0.34098), (-0.24033, 0.59045, 0.0056521), (0.17415, 0.59045, 0.0056521), (-0.36841, 0.38321, -0.32967), (0.047885, 0.21289, -0.57566), (0.38321, 0.34098, -0.36841), (0.59045, 0.0056521, -0.24033), (0.59045, 0.0056521, 0.17415), (0.38321, -0.32967, -0.36841), (-0.32967, -0.36841, -0.38321), (0.0056521, -0.24033, -0.59045), (0.0056521, 0.17415, -0.59045), (0.34098, -0.36841, -0.38321), (0.21289, -0.57566, -0.047885), (-0.36841, -0.38321, -0.32967), (-0.24033, -0.59045, 0.0056521), (0.17415, -0.59045, 0.0056521), (-0.36841, -0.38321, 0.34098), (-0.57566, -0.047885, 0.21289), (-0.38321, -0.32967, -0.36841), (-0.59045, 0.0056521, -0.24033), (-0.59045, 0.0056521, 0.17415), (-0.38321, 0.34098, -0.36841), (-0.047885, 0.21289, -0.57566), (0.24033, -0.59045, 0.0056521), (-0.17415, -0.59045, 0.0056521), (0.17415, -0.59045, 0.0056521), (-0.24033, -0.59045, 0.0056521), (0.0056521, -0.17415, 0.59045), (0.0056521, 0.24033, 0.59045), (0.0056521, -0.24033, 0.59045), (0.0056521, 0.17415, 0.59045), (-0.17415, 0.59045, 0.0056521), (0.24033, 0.59045, 0.0056521), (-0.24033, 0.59045, 0.0056521), (0.17415, 0.59045, 0.0056521), (0.59045, 0.0056521, -0.17415), (0.59045, 0.0056521, 0.24033), (0.59045, 0.0056521, -0.24033), (0.59045, 0.0056521, 0.17415), (-0.59045, 0.0056521, 0.24033), (-0.59045, 0.0056521, -0.17415), (-0.59045, 0.0056521, 0.17415), (-0.59045, 0.0056521, -0.24033), (0.0056521, 0.24033, -0.59045), (0.0056521, -0.17415, -0.59045), (0.0056521, 0.17415, -0.59045), (0.0056521, -0.24033, -0.59045), (-0.32967, -0.36841, 0.38321), (0.0056521, 0.17415, 0.59045), (-0.047885, 0.21289, 0.57566), (-0.38321, -0.32967, 0.36841), (0.0056521, 0.24033, 0.59045), (-0.32967, 0.36841, 0.38321), (-0.047885, 0.21289, 0.57566), (-0.38321, 0.34098, 0.36841), (0.34098, -0.36841, 0.38321), (0.21289, -0.57566, 0.047885), (0.24033, -0.59045, 0.0056521), (0.36841, -0.38321, 0.34098), (-0.36841, 0.38321, -0.32967), (0.17415, 0.59045, 0.0056521), (0.21289, 0.57566, -0.047885), (-0.32967, 0.36841, -0.38321), (0.59045, 0.0056521, 0.24033), (0.38321, -0.32967, 0.36841), (0.57566, -0.047885, 0.21289), (0.36841, -0.38321, 0.34098), (-0.36841, 0.38321, 0.34098), (-0.57566, 0.047885, 0.21289), (-0.59045, 0.0056521, 0.24033), (-0.38321, 0.34098, 0.36841), (0.38321, 0.34098, -0.36841), (0.047885, 0.21289, -0.57566), (0.0056521, 0.24033, -0.59045), (0.34098, 0.36841, -0.38321), (0.17415, -0.59045, 0.0056521), (-0.36841, -0.38321, 0.34098), (0.21289, -0.57566, 0.047885), (-0.32967, -0.36841, 0.38321), (0.0056521, 0.17415, -0.59045), (0.34098, -0.36841, -0.38321), (0.047885, 0.21289, -0.57566), (0.38321, -0.32967, -0.36841), (0.38321, -0.32967, -0.36841), (0.59045, 0.0056521, 0.17415), (0.57566, -0.047885, 0.21289), (0.36841, -0.38321, -0.32967), (-0.59045, 0.0056521, 0.17415), (-0.38321, 0.34098, -0.36841), (-0.57566, 0.047885, 0.21289), (-0.36841, 0.38321, -0.32967), (0.24033, 0.59045, 0.0056521), (0.36841, 0.38321, -0.32967), (0.21289, 0.57566, -0.047885), (0.34098, 0.36841, -0.38321)]
    normal3f[] normals = [(-0.57735, 0.57735, 0.57735), (-0.57735, 0.57735, 0.57735), (-0.57735, 0.57735, 0.57735), (-0.57735, 0.57735, 0.57735), (-0.57735, 0.57735, 0.57735), (0.57735, 0.57735, -0.57735), (0.57735, 0.57735, -0.57735), (0.57735, 0.57735, -0.57735), (0.57735, 0.57735, -0.57735), (0.57735, 0.57735, -0.57735), (0.57735, -0.57735, 0.57735), (0.57735, -0.57735, 0.57735), (0.57735, -0.57735, 0.57735), (0.57735, -0.57735, 0.57735), (0.57735, -0.57735, 0.57735), (1.6694e-07, 0.85065, -0.52573), (1.6694e-07, 0.85065, -0.52573), (1.6694e-07, 0.85065, -0.52573), (1.6694e-07, 0.85065, -0.52573), (1.6694e-07, 0.85065, -0.52573), (0.85065, -0.52573, 1.6694e-07), (0.85065, -0.52573, 1.6694e-07), (0.85065, -0.52573, 1.6694e-07), (0.85065, -0.52573, 1.6694e-07), (0.85065, -0.52573, 1.6694e-07), (-0.52573, 1.6694e-07, 0.85065), (-0.52573, 1.6694e-07, 0.85065), (-0.52573, 1.6694e-07, 0.85065), (-0.52573, 1.6694e-07, 0.85065), (-0.52573, 1.6694e-07, 0.85065), (1.6694e-07, -0.85065, 0.52573), (1.6694e-07, -0.85065, 0.52573), (1.6694e-07, -0.85065, 0.52573), (1.6694e-07, -0.85065, 0.52573), (1.6694e-07, -0.85065, 0.52573), (-0.85065, 0.52573, 1.6694e-07), (-0.85065, 0.52573, 1.6694e-07), (-0.85065, 0.52573, 1.6694e-07), (-0.85065, 0.52573, 1.6694e-07), (-0.85065, 0.52573, 1.6694e-07), (0.52573, 1.6694e-07, -0.85065), (0.52573, 1.6694e-07, -0.85065), (0.52573, 1.6694e-07, -0.85065), (0.52573, 1.6694e-07, -0.85065), (0.52573, 1.6694e-07, -0.85065), (-0.57735, -0.57735, -0.57735), (-0.57735, -0.57735, -0.57735), (-0.57735, -0.57735, -0.57735), (-0.57735, -0.57735, -0.57735), (-0.57735, -0.57735, -0.57735), (-0.57735, -0.57735, -0.57735), (-0.57735, -0.57735, -0.57735), (-0.57735, -0.57735, -0.57735), (-0.57735, -0.57735, -0.57735), (-0.57735, -0.57735, -0.57735), (-0.57735, -0.57735, -0.57735), (-0.57735, -0.57735, -0.57735), (-0.57735, -0.57735, -0.57735), (-0.57735, -0.57735, -0.57735), (-0.57735, -0.57735, -0.57735), (nan, nan, nan), (nan, nan, nan), (nan, nan, nan), (nan, nan, nan), (nan, nan, nan), (nan, nan, nan), (nan, nan, nan), (nan, nan, nan), (nan, nan, nan), (nan, nan, nan), (nan, nan, nan), (nan, nan, nan), (nan, nan, nan), (nan, nan, nan), (nan, nan, nan), (nan, nan, nan), (nan, nan, nan), (nan, nan, nan), (nan, nan, nan), (nan, nan, nan), (nan, nan, nan), (nan, nan, nan), (nan, nan, nan), (nan, nan, nan), (-0.35355, -0.13505, 0.92561), (-0.35355, -0.13505, 0.92561), (-0.35355, -0.13505, 0.92561), (-0.35355, -0.13505, 0.92561), (-0.40355, 0.32648, 0.85473), (-0.40355, 0.32648, 0.85473), (-0.40355, 0.32648, 0.85473), (-0.40355, 0.32648, 0.85473), (0.22443, -0.86496, 0.44885), (0.22443, -0.86496, 0.44885), (0.22443, -0.86496, 0.44885), (0.22443, -0.86496, 0.44885), (-0.13505, 0.92561, -0.35355), (-0.13505, 0.92561, -0.35355), (-0.13505, 0.92561, -0.35355), (-0.13505, 0.92561, -0.35355), (0.85473, -0.40355, 0.32648), (0.85473, -0.40355, 0.32648), (0.85473, -0.40355, 0.32648), (0.85473, -0.40355, 0.32648), (-0.86496, 0.44885, 0.22443), (-0.86496, 0.44885, 0.22443), (-0.86496, 0.44885, 0.22443), (-0.86496, 0.44885, 0.22443), (0.44885, 0.22443, -0.86496), (0.44885, 0.22443, -0.86496), (0.44885, 0.22443, -0.86496), (0.44885, 0.22443, -0.86496), (-0.09593, -0.90866, 0.40637), (-0.09593, -0.90866, 0.40637), (-0.09593, -0.90866, 0.40637), (-0.09593, -0.90866, 0.40637), (0.40637, -0.09593, -0.90866), (0.40637, -0.09593, -0.90866), (0.40637, -0.09593, -0.90866), (0.40637, -0.09593, -0.90866), (0.92561, -0.35355, -0.13505), (0.92561, -0.35355, -0.13505), (0.92561, -0.35355, -0.13505), (0.92561, -0.35355, -0.13505), (-0.90866, 0.40637, -0.09593), (-0.90866, 0.40637, -0.09593), (-0.90866, 0.40637, -0.09593), (-0.90866, 0.40637, -0.09593), (0.32648, 0.85473, -0.40355), (0.32648, 0.85473, -0.40355), (0.32648, 0.85473, -0.40355), (0.32648, 0.85473, -0.40355)] (
        interpolation = "faceVarying"
    )
    texCoord2f[] primvars:st = [(0.23, 0.875), (0.1608, 0.84163), (0.03384, 0.875), (0.088058, 0.86712), (0.1123, 0.91625), (0.48, 0.875), (0.4108, 0.84163), (0.28384, 0.875), (0.33806, 0.86712), (0.3623, 0.91625), (0.73, 0.875), (0.6608, 0.84163), (0.53384, 0.875), (0.58806, 0.86712), (0.6123, 0.91625), (0.98, 0.875), (0.9108, 0.929), (0.83806, 0.87987), (0.78384, 0.89563), (0.8623, 0.79551), (0.23, 0.625), (0.1608, 0.679), (0.088058, 0.62987), (0.03384, 0.64563), (0.1123, 0.54551), (0.48, 0.625), (0.4108, 0.679), (0.33806, 0.62987), (0.28384, 0.64563), (0.3623, 0.54551), (0.73, 0.625), (0.6608, 0.679), (0.58806, 0.62987), (0.53384, 0.64563), (0.6123, 0.54551), (0.98, 0.625), (0.9108, 0.679), (0.83806, 0.62987), (0.78384, 0.64563), (0.8623, 0.54551), (0.23, 0.375), (0.1608, 0.429), (0.088058, 0.37987), (0.03384, 0.39563), (0.1123, 0.29551), (0.48, 0.375), (0.4108, 0.34163), (0.28384, 0.375), (0.33806, 0.36712), (0.3623, 0.41625), (0.73, 0.375), (0.6608, 0.34163), (0.53384, 0.375), (0.58806, 0.36712), (0.6123, 0.41625), (0.98, 0.375), (0.9108, 0.34163), (0.78384, 0.375), (0.83806, 0.36712), (0.8623, 0.41625), (nan, nan), (nan, nan), (nan, nan), (nan, nan), (nan, nan), (nan, nan), (nan, nan), (nan, nan), (nan, nan), (nan, nan), (nan, nan), (nan, nan), (nan, nan), (nan, nan), (nan, nan), (nan, nan), (nan, nan), (nan, nan), (nan, nan), (nan, nan), (nan, nan), (nan, nan), (nan, nan), (nan, nan), (0.23, 0.125), (0.02212, 0.14599), (0.02, 0.125), (0.22788, 0.10401), (0.23, 0.125), (0.041277, 0.14373), (0.20872, 0.10627), (0.02, 0.125), (0.23, 0.125), (0.037123, 0.14256), (0.02, 0.125), (0.21288, 0.10744), (0.23, 0.125), (0.02212, 0.14599), (0.02, 0.125), (0.22788, 0.10401), (0.23, 0.125), (0.041277, 0.14373), (0.20872, 0.10627), (0.02, 0.125), (0.23, 0.125), (0.037123, 0.14256), (0.02, 0.125), (0.21288, 0.10744), (0.23, 0.125), (0.037123, 0.14256), (0.02, 0.125), (0.21288, 0.10744), (0.22826, 0.125), (0.021609, 0.10669), (0.22839, 0.14331), (0.021742, 0.125), (0.22826, 0.125), (0.021609, 0.10669), (0.22839, 0.14331), (0.021742, 0.125), (0.23, 0.125), (0.02212, 0.14599), (0.02, 0.125), (0.22788, 0.10401), (0.22826, 0.125), (0.021609, 0.10669), (0.22839, 0.14331), (0.021742, 0.125), (0.23, 0.125), (0.041277, 0.14373), (0.20872, 0.10627), (0.02, 0.125)] (
        interpolation = "faceVarying"
    )
    uniform token subdivisionScheme = "none"
    rel material:binding = </D12/Materials/DieMaterial>
}

def Scope "Materials"
{
    def Material "DieMaterial"
    {
        token outputs:surface.connect = </D12/Materials/DieMaterial/PBRShader.outputs:surface>

        def Shader "PBRShader"
        {
            uniform token info:id = "UsdPreviewSurface"
            color3f inputs:diffuseColor.connect = </D12/Materials/DieMaterial/DiffuseTexture.outputs:rgb>
            float inputs:metallic = 0
            float inputs:roughness = 0.38
            token outputs:surface
        }

        def Shader "STReader"
        {
            uniform token info:id = "UsdPrimvarReader_float2"
            token inputs:varname = "st"
            float2 outputs:result
        }

        def Shader "DiffuseTexture"
        {
            uniform token info:id = "UsdUVTexture"
            asset inputs:file = @d12_diffuse.png@
            float2 inputs:st.connect = </D12/Materials/DieMaterial/STReader.outputs:result>
            token inputs:wrapS = "repeat"
            token inputs:wrapT = "repeat"
            float3 outputs:rgb
        }
    }
}
}
