#usda 1.0
(
defaultPrim = "D20"
metersPerUnit = 1
upAxis = "Y"
doc = "Dice Throw – d20 die. Generated by Tools/GenerateDiceModels.swift; open in Reality Composer Pro."
)

def Xform "D20" (
kind = "component"
)
{
def Mesh "Geometry"
{
    int[] faceVertexCounts = [3, 3, 3, 3, 3, 3, 3, 3, 3, 3, 3, 3, 3, 3, 3, 3, 3, 3, 3, 3, 4, 4, 4, 4, 4, 4, 4, 4, 4, 4, 4, 4, 4, 4, 4, 4, 4, 4, 4, 4, 4, 4, 4, 4, 4, 4, 4, 4, 4, 4, 5, 5, 5, 5, 5, 5, 5, 5, 5, 5, 5, 5]
    int[] faceVertexIndices = [0, 1, 2, 3, 4, 5, 6, 7, 8, 9, 10, 11, 12, 13, 14, 15, 16, 17, 18, 19, 20, 21, 22, 23, 24, 25, 26, 27, 28, 29, 30, 31, 32, 33, 34, 35, 36, 37, 38, 39, 40, 41, 42, 43, 44, 45, 46, 47, 48, 49, 50, 51, 52, 53, 54, 55, 56, 57, 58, 59, 60, 61, 62, 63, 64, 65, 66, 67, 68, 69, 70, 71, 72, 73, 74, 75, 76, 77, 78, 79, 80, 81, 82, 83, 84, 85, 86, 87, 88, 89, 90, 91, 92, 93, 94, 95, 96, 97, 98, 99, 100, 101, 102, 103, 104, 105, 106, 107, 108, 109, 110, 111, 112, 113, 114, 115, 116, 117, 118, 119, 120, 121, 122, 123, 124, 125, 126, 127, 128, 129, 130, 131, 132, 133, 134, 135, 136, 137, 138, 139, 140, 141, 142, 143, 144, 145, 146, 147, 148, 149, 150, 151, 152, 153, 154, 155, 156, 157, 158, 159, 160, 161, 162, 163, 164, 165, 166, 167, 168, 169, 170, 171, 172, 173, 174, 175, 176, 177, 178, 179, 180, 181, 182, 183, 184, 185, 186, 187, 188, 189, 190, 191, 192, 193, 194, 195, 196, 197, 198, 199, 200, 201, 202, 203, 204, 205, 206, 207, 208, 209, 210, 211, 212, 213, 214, 215, 216, 217, 218, 219, 220, 221, 222, 223, 224, 225, 226, 227, 228, 229, 230, 231, 232, 233, 234, 235, 236, 237, 238, 239]
    point3f[] points = [(0.57861, 0.03964, 0.37274), (0.37274, 0.57861, 0.03964), (0.03964, 0.37274, 0.57861), (0, 0.39724, 0.56347), (0.3331, 0.60311, 0.024499), (-0.3331, 0.60311, 0.024499), (0.024499, -0.3331, 0.60311), (0.56347, 0, 0.39724), (0.024499, 0.3331, 0.60311), (-0.024499, 0.3331, 0.60311), (-0.56347, 0, 0.39724), (-0.024499, -0.3331, 0.60311), (-0.37274, 0.57861, 0.03964), (-0.57861, 0.03964, 0.37274), (-0.03964, 0.37274, 0.57861), (0.39724, 0.56347, 0), (0.60311, 0.024499, 0.3331), (0.60311, 0.024499, -0.3331), (0.3331, 0.60311, -0.024499), (0, 0.39724, -0.56347), (-0.3331, 0.60311, -0.024499), (0.57861, 0.03964, -0.37274), (0.03964, 0.37274, -0.57861), (0.37274, 0.57861, -0.03964), (0.03964, -0.37274, 0.57861), (0.37274, -0.57861, 0.03964), (0.57861, -0.03964, 0.37274), (0.60311, -0.024499, 0.3331), (0.39724, -0.56347, 0), (0.60311, -0.024499, -0.3331), (-0.57861, 0.03964, -0.37274), (-0.37274, 0.57861, -0.03964), (-0.03964, 0.37274, -0.57861), (0.024499, 0.3331, -0.60311), (0.56347, 0, -0.39724), (0.024499, -0.3331, -0.60311), (-0.024499, 0.3331, -0.60311), (-0.024499, -0.3331, -0.60311), (-0.56347, 0, -0.39724), (0.3331, -0.60311, 0.024499), (0, -0.39724, 0.56347), (-0.3331, -0.60311, 0.024499), (0.03964, -0.37274, -0.57861), (0.57861, -0.03964, -0.37274), (0.37274, -0.57861, -0.03964), (-0.3331, -0.60311, -0.024499), (0, -0.39724, -0.56347), (0.3331, -0.60311, -0.024499), (-0.37274, -0.57861, 0.03964), (-0.03964, -0.37274, 0.57861), (-0.57861, -0.03964, 0.37274), (-0.60311, 0.024499, 0.3331), (-0.39724, 0.56347, 0), (-0.60311, 0.024499, -0.3331), (-0.60311, -0.024499, -0.3331), (-0.39724, -0.56347, 0), (-0.60311, -0.024499, 0.3331), (-0.03964, -0.37274, -0.57861), (-0.37274, -0.57861, -0.03964), (-0.57861, -0.03964, -0.37274), (0.024499, 0.3331, 0.60311), (0.56347, 0, 0.39724), (0.57861, 0.03964, 0.37274), (0.03964, 0.37274, 0.57861), (-0.03964, 0.37274, -0.57861), (-0.37274, 0.57861, -0.03964), (-0.3331, 0.60311, -0.024499), (0, 0.39724, -0.56347), (0.56347, 0, -0.39724), (0.024499, 0.3331, -0.60311), (0.03964, 0.37274, -0.57861), (0.57861, 0.03964, -0.37274), (-0.39724, 0.56347, 0), (-0.60311, 0.024499, 0.3331), (-0.57861, 0.03964, 0.37274), (-0.37274, 0.57861, 0.03964), (0.3331, 0.60311, 0.024499), (0, 0.39724, 0.56347), (0.03964, 0.37274, 0.57861), (0.37274, 0.57861, 0.03964), (-0.03964, -0.37274, 0.57861), (-0.37274, -0.57861, 0.03964), (-0.3331, -0.60311, 0.024499), (0, -0.39724, 0.56347), (0.03964, -0.37274, 0.57861), (0.57861, -0.03964, 0.37274), (0.56347, 0, 0.39724), (0.024499, -0.3331, 0.60311), (-0.60311, -0.024499, 0.3331), (-0.39724, -0.56347, 0), (-0.37274, -0.57861, 0.03964), (-0.57861, -0.03964, 0.37274), (-0.024499, 0.3331, -0.60311), (-0.56347, 0, -0.39724), (-0.57861, 0.03964, -0.37274), (-0.03964, 0.37274, -0.57861), (0, -0.39724, 0.56347), (0.3331, -0.60311, 0.024499), (0.37274, -0.57861, 0.03964), (0.03964, -0.37274, 0.57861), (-0.57861, -0.03964, -0.37274), (-0.37274, -0.57861, -0.03964), (-0.39724, -0.56347, 0), (-0.60311, -0.024499, -0.3331), (-0.37274, 0.57861, 0.03964), (-0.03964, 0.37274, 0.57861), (0, 0.39724, 0.56347), (-0.3331, 0.60311, 0.024499), (0.39724, -0.56347, 0), (0.60311, -0.024499, 0.3331), (0.57861, -0.03964, 0.37274), (0.37274, -0.57861, 0.03964), (0.3331, 0.60311, -0.024499), (-0.3331, 0.60311, -0.024499), (-0.3331, 0.60311, 0.024499), (0.3331, 0.60311, 0.024499), (0.3331, -0.60311, -0.024499), (0, -0.39724, -0.56347), (0.03964, -0.37274, -0.57861), (0.37274, -0.57861, -0.03964), (-0.60311, 0.024499, -0.3331), (-0.39724, 0.56347, 0), (-0.37274, 0.57861, -0.03964), (-0.57861, 0.03964, -0.37274), (-0.57861, -0.03964, 0.37274), (-0.03964, -0.37274, 0.57861), (-0.024499, -0.3331, 0.60311), (-0.56347, 0, 0.39724), (0.37274, 0.57861, -0.03964), (0.03964, 0.37274, -0.57861), (0, 0.39724, -0.56347), (0.3331, 0.60311, -0.024499), (-0.3331, -0.60311, -0.024499), (0.3331, -0.60311, -0.024499), (0.3331, -0.60311, 0.024499), (-0.3331, -0.60311, 0.024499), (0.57861, -0.03964, -0.37274), (0.03964, -0.37274, -0.57861), (0.024499, -0.3331, -0.60311), (0.56347, 0, -0.39724), (-0.60311, -0.024499, -0.3331), (-0.60311, -0.024499, 0.3331), (-0.60311, 0.024499, 0.3331), (-0.60311, 0.024499, -0.3331), (0.57861, 0.03964, -0.37274), (0.37274, 0.57861, -0.03964), (0.39724, 0.56347, 0), (0.60311, 0.024499, -0.3331), (0.60311, 0.024499, 0.3331), (0.39724, 0.56347, 0), (0.37274, 0.57861, 0.03964), (0.57861, 0.03964, 0.37274), (-0.024499, 0.3331, 0.60311), (-0.024499, -0.3331, 0.60311), (0.024499, -0.3331, 0.60311), (0.024499, 0.3331, 0.60311), (-0.024499, -0.3331, -0.60311), (-0.024499, 0.3331, -0.60311), (0.024499, 0.3331, -0.60311), (0.024499, -0.3331, -0.60311), (-0.03964, -0.37274, -0.57861), (-0.57861, -0.03964, -0.37274), (-0.56347, 0, -0.39724), (-0.024499, -0.3331, -0.60311), (-0.03964, 0.37274, 0.57861), (-0.57861, 0.03964, 0.37274), (-0.56347, 0, 0.39724), (-0.024499, 0.3331, 0.60311), (-0.37274, -0.57861, -0.03964), (-0.03964, -0.37274, -0.57861), (0, -0.39724, -0.56347), (-0.3331, -0.60311, -0.024499), (0.37274, -0.57861, -0.03964), (0.57861, -0.03964, -0.37274), (0.60311, -0.024499, -0.3331), (0.39724, -0.56347, 0), (0.60311, -0.024499, 0.3331), (0.60311, -0.024499, -0.3331), (0.60311, 0.024499, -0.3331), (0.60311, 0.024499, 0.3331), (0, 0.39724, 0.56347), (-0.03964, 0.37274, 0.57861), (-0.024499, 0.3331, 0.60311), (0.024499, 0.3331, 0.60311), (0.03964, 0.37274, 0.57861), (0.39724, 0.56347, 0), (0.37274, 0.57861, -0.03964), (0.3331, 0.60311, -0.024499), (0.3331, 0.60311, 0.024499), (0.37274, 0.57861, 0.03964), (0.56347, 0, 0.39724), (0.57861, -0.03964, 0.37274), (0.60311, -0.024499, 0.3331), (0.60311, 0.024499, 0.3331), (0.57861, 0.03964, 0.37274), (0.03964, 0.37274, -0.57861), (0.024499, 0.3331, -0.60311), (-0.024499, 0.3331, -0.60311), (-0.03964, 0.37274, -0.57861), (0, 0.39724, -0.56347), (0.3331, -0.60311, 0.024499), (0.3331, -0.60311, -0.024499), (0.37274, -0.57861, -0.03964), (0.39724, -0.56347, 0), (0.37274, -0.57861, 0.03964), (-0.57861, 0.03964, 0.37274), (-0.60311, 0.024499, 0.3331), (-0.60311, -0.024499, 0.3331), (-0.57861, -0.03964, 0.37274), (-0.56347, 0, 0.39724), (-0.024499, -0.3331, 0.60311), (-0.03964, -0.37274, 0.57861), (0, -0.39724, 0.56347), (0.03964, -0.37274, 0.57861), (0.024499, -0.3331, 0.60311), (-0.3331, 0.60311, -0.024499), (-0.37274, 0.57861, -0.03964), (-0.39724, 0.56347, 0), (-0.37274, 0.57861, 0.03964), (-0.3331, 0.60311, 0.024499), (0.60311, -0.024499, -0.3331), (0.57861, -0.03964, -0.37274), (0.56347, 0, -0.39724), (0.57861, 0.03964, -0.37274), (0.60311, 0.024499, -0.3331), (0.03964, -0.37274, -0.57861), (0, -0.39724, -0.56347), (-0.03964, -0.37274, -0.57861), (-0.024499, -0.3331, -0.60311), (0.024499, -0.3331, -0.60311), (-0.37274, -0.57861, 0.03964), (-0.39724, -0.56347, 0), (-0.37274, -0.57861, -0.03964), (-0.3331, -0.60311, -0.024499), (-0.3331, -0.60311, 0.024499), (-0.56347, 0, -0.39724), (-0.57861, -0.03964, -0.37274), (-0.60311, -0.024499, -0.3331), (-0.60311, 0.024499, -0.3331), (-0.57861, 0.03964, -0.37274)]
    normal3f[] normals = [(0.57735, 0.57735, 0.57735), (0.57735, 0.57735, 0.57735), (0.57735, 0.57735, 0.57735), (-6.735e-09, 0.93417, 0.35682), (-6.735e-09, 0.93417, 0.35682), (-6.735e-09, 0.93417, 0.35682), (0.35682, -0, 0.93417), (0.35682, -0, 0.93417), (0.35682, -0, 0.93417), (-0.35682, 0, 0.93417), (-0.35682, 0, 0.93417), (-0.35682, 0, 0.93417), (-0.57735, 0.57735, 0.57735), (-0.57735, 0.57735, 0.57735), (-0.57735, 0.57735, 0.57735), (0.93417, 0.35682, -6.735e-09), (0.93417, 0.35682, -6.735e-09), (0.93417, 0.35682, -6.735e-09), (0, 0.93417, -0.35682), (0, 0.93417, -0.35682), (0, 0.93417, -0.35682), (0.57735, 0.57735, -0.57735), (0.57735, 0.57735, -0.57735), (0.57735, 0.57735, -0.57735), (0.57735, -0.57735, 0.57735), (0.57735, -0.57735, 0.57735), (0.57735, -0.57735, 0.57735), (0.93417, -0.35682, 0), (0.93417, -0.35682, 0), (0.93417, -0.35682, 0), (-0.57735, 0.57735, -0.57735), (-0.57735, 0.57735, -0.57735), (-0.57735, 0.57735, -0.57735), (0.35682, 0, -0.93417), (0.35682, 0, -0.93417), (0.35682, 0, -0.93417), (-0.35682, -0, -0.93417), (-0.35682, -0, -0.93417), (-0.35682, -0, -0.93417), (0, -0.93417, 0.35682), (0, -0.93417, 0.35682), (0, -0.93417, 0.35682), (0.57735, -0.57735, -0.57735), (0.57735, -0.57735, -0.57735), (0.57735, -0.57735, -0.57735), (0, -0.93417, -0.35682), (0, -0.93417, -0.35682), (0, -0.93417, -0.35682), (-0.57735, -0.57735, 0.57735), (-0.57735, -0.57735, 0.57735), (-0.57735, -0.57735, 0.57735), (-0.93417, 0.35682, 0), (-0.93417, 0.35682, 0), (-0.93417, 0.35682, 0), (-0.93417, -0.35682, 0), (-0.93417, -0.35682, 0), (-0.93417, -0.35682, 0), (-0.57735, -0.57735, -0.57735), (-0.57735, -0.57735, -0.57735), (-0.57735, -0.57735, -0.57735), (0.5, 0.30902, 0.80902), (0.5, 0.30902, 0.80902), (0.5, 0.30902, 0.80902), (0.5, 0.30902, 0.80902), (-0.30902, 0.80902, -0.5), (-0.30902, 0.80902, -0.5), (-0.30902, 0.80902, -0.5), (-0.30902, 0.80902, -0.5), (0.5, 0.30902, -0.80902), (0.5, 0.30902, -0.80902), (0.5, 0.30902, -0.80902), (0.5, 0.30902, -0.80902), (-0.80902, 0.5, 0.30902), (-0.80902, 0.5, 0.30902), (-0.80902, 0.5, 0.30902), (-0.80902, 0.5, 0.30902), (0.30902, 0.80902, 0.5), (0.30902, 0.80902, 0.5), (0.30902, 0.80902, 0.5), (0.30902, 0.80902, 0.5), (-0.30902, -0.80902, 0.5), (-0.30902, -0.80902, 0.5), (-0.30902, -0.80902, 0.5), (-0.30902, -0.80902, 0.5), (0.5, -0.30902, 0.80902), (0.5, -0.30902, 0.80902), (0.5, -0.30902, 0.80902), (0.5, -0.30902, 0.80902), (-0.80902, -0.5, 0.30902), (-0.80902, -0.5, 0.30902), (-0.80902, -0.5, 0.30902), (-0.80902, -0.5, 0.30902), (-0.5, 0.30902, -0.80902), (-0.5, 0.30902, -0.80902), (-0.5, 0.30902, -0.80902), (-0.5, 0.30902, -0.80902), (0.30902, -0.80902, 0.5), (0.30902, -0.80902, 0.5), (0.30902, -0.80902, 0.5), (0.30902, -0.80902, 0.5), (-0.80902, -0.5, -0.30902), (-0.80902, -0.5, -0.30902), (-0.80902, -0.5, -0.30902), (-0.80902, -0.5, -0.30902), (-0.30902, 0.80902, 0.5), (-0.30902, 0.80902, 0.5), (-0.30902, 0.80902, 0.5), (-0.30902, 0.80902, 0.5), (0.80902, -0.5, 0.30902), (0.80902, -0.5, 0.30902), (0.80902, -0.5, 0.30902), (0.80902, -0.5, 0.30902), (0, 1, 0), (0, 1, 0), (0, 1, 0), (0, 1, 0), (0.30902, -0.80902, -0.5), (0.30902, -0.80902, -0.5), (0.30902, -0.80902, -0.5), (0.30902, -0.80902, -0.5), (-0.80902, 0.5, -0.30902), (-0.80902, 0.5, -0.30902), (-0.80902, 0.5, -0.30902), (-0.80902, 0.5, -0.30902), (-0.5, -0.30902, 0.80902), (-0.5, -0.30902, 0.80902), (-0.5, -0.30902, 0.80902), (-0.5, -0.30902, 0.80902), (0.30902, 0.80902, -0.5), (0.30902, 0.80902, -0.5), (0.30902, 0.80902, -0.5), (0.30902, 0.80902, -0.5), (0, -1, 0), (0, -1, 0), (0, -1, 0), (0, -1, 0), (0.5, -0.30902, -0.80902), (0.5, -0.30902, -0.80902), (0.5, -0.30902, -0.80902), (0.5, -0.30902, -0.80902), (-1, 0, 0), (-1, 0, 0), (-1, 0, 0), (-1, 0, 0), (0.80902, 0.5, -0.30902), (0.80902, 0.5, -0.30902), (0.80902, 0.5, -0.30902), (0.80902, 0.5, -0.30902), (0.80902, 0.5, 0.30902), (0.80902, 0.5, 0.30902), (0.80902, 0.5, 0.30902), (0.80902, 0.5, 0.30902), (0, 0, 1), (0, 0, 1), (0, 0, 1), (0, 0, 1), (0, 0, -1), (0, 0, -1), (0, 0, -1), (0, 0, -1), (-0.5, -0.30902, -0.80902), (-0.5, -0.30902, -0.80902), (-0.5, -0.30902, -0.80902), (-0.5, -0.30902, -0.80902), (-0.5, 0.30902, 0.80902), (-0.5, 0.30902, 0.80902), (-0.5, 0.30902, 0.80902), (-0.5, 0.30902, 0.80902), (-0.30902, -0.80902, -0.5), (-0.30902, -0.80902, -0.5), (-0.30902, -0.80902, -0.5), (-0.30902, -0.80902, -0.5), (0.80902, -0.5, -0.30902), (0.80902, -0.5, -0.30902), (0.80902, -0.5, -0.30902), (0.80902, -0.5, -0.30902), (1, 0, 0), (1, 0, 0), (1, 0, 0), (1, 0, 0), (-1.1913e-08, 0.52573, 0.85065), (-1.1913e-08, 0.52573, 0.85065), (-1.1913e-08, 0.52573, 0.85065), (-1.1913e-08, 0.52573, 0.85065), (-1.1913e-08, 0.52573, 0.85065), (0.52573, 0.85065, -1.1913e-08), (0.52573, 0.85065, -1.1913e-08), (0.52573, 0.85065, -1.1913e-08), (0.52573, 0.85065, -1.1913e-08), (0.52573, 0.85065, -1.1913e-08), (0.85065, -1.1913e-08, 0.52573), (0.85065, -1.1913e-08, 0.52573), (0.85065, -1.1913e-08, 0.52573), (0.85065, -1.1913e-08, 0.52573), (0.85065, -1.1913e-08, 0.52573), (-1.2941e-07, 0.52573, -0.85065), (-1.2941e-07, 0.52573, -0.85065), (-1.2941e-07, 0.52573, -0.85065), (-1.2941e-07, 0.52573, -0.85065), (-1.2941e-07, 0.52573, -0.85065), (0.52573, -0.85065, 0), (0.52573, -0.85065, 0), (0.52573, -0.85065, 0), (0.52573, -0.85065, 0), (0.52573, -0.85065, 0), (-0.85065, -1.2941e-07, 0.52573), (-0.85065, -1.2941e-07, 0.52573), (-0.85065, -1.2941e-07, 0.52573), (-0.85065, -1.2941e-07, 0.52573), (-0.85065, -1.2941e-07, 0.52573), (1.0358e-07, -0.52573, 0.85065), (1.0358e-07, -0.52573, 0.85065), (1.0358e-07, -0.52573, 0.85065), (1.0358e-07, -0.52573, 0.85065), (1.0358e-07, -0.52573, 0.85065), (-0.52573, 0.85065, 1.0358e-07), (-0.52573, 0.85065, 1.0358e-07), (-0.52573, 0.85065, 1.0358e-07), (-0.52573, 0.85065, 1.0358e-07), (-0.52573, 0.85065, 1.0358e-07), (0.85065, 1.0358e-07, -0.52573), (0.85065, 1.0358e-07, -0.52573), (0.85065, 1.0358e-07, -0.52573), (0.85065, 1.0358e-07, -0.52573), (0.85065, 1.0358e-07, -0.52573), (0, -0.52573, -0.85065), (0, -0.52573, -0.85065), (0, -0.52573, -0.85065), (0, -0.52573, -0.85065), (0, -0.52573, -0.85065), (-0.52573, -0.85065, 0), (-0.52573, -0.85065, 0), (-0.52573, -0.85065, 0), (-0.52573, -0.85065, 0), (-0.52573, -0.85065, 0), (-0.85065, -1.1913e-08, -0.52573), (-0.85065, -1.1913e-08, -0.52573), (-0.85065, -1.1913e-08, -0.52573), (-0.85065, -1.1913e-08, -0.52573), (-0.85065, -1.1913e-08, -0.52573)] (
        interpolation = "faceVarying"
    )
    texCoord2f[] primvars:st = [(0.184, 0.9), (0.058, 0.97275), (0.058, 0.82725), (0.384, 0.9), (0.258, 0.97275), (0.258, 0.82725), (0.584, 0.9), (0.458, 0.97275), (0.458, 0.82725), (0.784, 0.9), (0.658, 0.97275), (0.658, 0.82725), (0.984, 0.9), (0.858, 0.97275), (0.858, 0.82725), (0.184, 0.7), (0.058, 0.77275), (0.058, 0.62725), (0.384, 0.7), (0.258, 0.77275), (0.258, 0.62725), (0.584, 0.7), (0.458, 0.77275), (0.458, 0.62725), (0.784, 0.7), (0.658, 0.77275), (0.658, 0.62725), (0.984, 0.7), (0.858, 0.77275), (0.858, 0.62725), (0.184, 0.5), (0.058, 0.57275), (0.058, 0.42725), (0.384, 0.5), (0.258, 0.57275), (0.258, 0.42725), (0.584, 0.5), (0.458, 0.57275), (0.458, 0.42725), (0.784, 0.5), (0.658, 0.57275), (0.658, 0.42725), (0.984, 0.5), (0.858, 0.57275), (0.858, 0.42725), (0.184, 0.3), (0.058, 0.37275), (0.058, 0.22725), (0.384, 0.3), (0.258, 0.37275), (0.258, 0.22725), (0.584, 0.3), (0.458, 0.37275), (0.458, 0.22725), (0.784, 0.3), (0.658, 0.37275), (0.658, 0.22725), (0.984, 0.3), (0.858, 0.37275), (0.858, 0.22725), (0.184, 0.1), (0.016904, 0.11229), (0.016, 0.1), (0.1831, 0.087711), (0.184, 0.1), (0.016904, 0.11229), (0.016, 0.1), (0.1831, 0.087711), (0.184, 0.1), (0.016904, 0.11229), (0.016, 0.1), (0.1831, 0.087711), (0.184, 0.1), (0.016904, 0.11229), (0.016, 0.1), (0.1831, 0.087711), (0.184, 0.1), (0.016904, 0.11229), (0.016, 0.1), (0.1831, 0.087711), (0.184, 0.1), (0.016904, 0.11229), (0.016, 0.1), (0.1831, 0.087711), (0.184, 0.1), (0.016904, 0.11229), (0.016, 0.1), (0.1831, 0.087711), (0.184, 0.1), (0.016904, 0.11229), (0.016, 0.1), (0.1831, 0.087711), (0.184, 0.1), (0.016904, 0.11229), (0.016, 0.1), (0.1831, 0.087711), (0.184, 0.1), (0.016904, 0.11229), (0.016, 0.1), (0.1831, 0.087711), (0.184, 0.1), (0.016904, 0.11229), (0.016, 0.1), (0.1831, 0.087711), (0.184, 0.1), (0.016904, 0.11229), (0.016, 0.1), (0.1831, 0.087711), (0.184, 0.1), (0.016904, 0.11229), (0.016, 0.1), (0.1831, 0.087711), (0.184, 0.1), (0.016904, 0.11229), (0.016, 0.1), (0.1831, 0.087711), (0.184, 0.1), (0.016904, 0.11229), (0.016, 0.1), (0.1831, 0.087711), (0.184, 0.1), (0.016904, 0.11229), (0.016, 0.1), (0.1831, 0.087711), (0.184, 0.1), (0.016904, 0.11229), (0.016, 0.1), (0.1831, 0.087711), (0.184, 0.1), (0.016904, 0.11229), (0.016, 0.1), (0.1831, 0.087711), (0.184, 0.1), (0.016904, 0.11229), (0.016, 0.1), (0.1831, 0.087711), (0.184, 0.1), (0.016904, 0.11229), (0.016, 0.1), (0.1831, 0.087711), (0.184, 0.1), (0.016904, 0.11229), (0.016, 0.1), (0.1831, 0.087711), (0.184, 0.1), (0.016904, 0.11229), (0.016, 0.1), (0.1831, 0.087711), (0.184, 0.1), (0.016904, 0.11229), (0.016, 0.1), (0.1831, 0.087711), (0.184, 0.1), (0.016904, 0.11229), (0.016, 0.1), (0.1831, 0.087711), (0.184, 0.1), (0.016904, 0.11229), (0.016, 0.1), (0.1831, 0.087711), (0.184, 0.1), (0.016904, 0.11229), (0.016, 0.1), (0.1831, 0.087711), (0.184, 0.1), (0.016904, 0.11229), (0.016, 0.1), (0.1831, 0.087711), (0.184, 0.1), (0.016904, 0.11229), (0.016, 0.1), (0.1831, 0.087711), (0.184, 0.1), (0.016904, 0.11229), (0.016, 0.1), (0.1831, 0.087711), (0.184, 0.1), (0.016904, 0.11229), (0.016, 0.1), (0.1831, 0.087711), (0.184, 0.1), (0.12596, 0.17989), (0.032043, 0.14937), (0.032043, 0.050626), (0.12596, 0.020111), (0.184, 0.1), (0.12596, 0.17989), (0.032043, 0.14937), (0.032043, 0.050626), (0.12596, 0.020111), (0.184, 0.1), (0.12596, 0.17989), (0.032043, 0.14937), (0.032043, 0.050626), (0.12596, 0.020111), (0.184, 0.1), (0.12596, 0.17989), (0.032043, 0.14937), (0.032043, 0.050626), (0.12596, 0.020111), (0.184, 0.1), (0.12596, 0.17989), (0.032043, 0.14937), (0.032043, 0.050626), (0.12596, 0.020111), (0.184, 0.1), (0.12596, 0.17989), (0.032043, 0.14937), (0.032043, 0.050626), (0.12596, 0.020111), (0.184, 0.1), (0.12596, 0.17989), (0.032043, 0.14937), (0.032043, 0.050626), (0.12596, 0.020111), (0.184, 0.1), (0.12596, 0.17989), (0.032043, 0.14937), (0.032043, 0.050626), (0.12596, 0.020111), (0.184, 0.1), (0.12596, 0.17989), (0.032043, 0.14937), (0.032043, 0.050626), (0.12596, 0.020111), (0.184, 0.1), (0.12596, 0.17989), (0.032043, 0.14937), (0.032043, 0.050626), (0.12596, 0.020111), (0.184, 0.1), (0.12596, 0.17989), (0.032043, 0.14937), (0.032043, 0.050626), (0.12596, 0.020111), (0.184, 0.1), (0.12596, 0.17989), (0.032043, 0.14937), (0.032043, 0.050626), (0.12596, 0.020111)] (
        interpolation = "faceVarying"
    )
    uniform token subdivisionScheme = "none"
    rel material:binding = </D20/Materials/DieMaterial>
}

def Scope "Materials"
{
    def Material "DieMaterial"
    {
        token outputs:surface.connect = </D20/Materials/DieMaterial/PBRShader.outputs:surface>

        def Shader "PBRShader"
        {
            uniform token info:id = "UsdPreviewSurface"
            color3f inputs:diffuseColor.connect = </D20/Materials/DieMaterial/DiffuseTexture.outputs:rgb>
            float inputs:metallic = 0
            float inputs:roughness = 0.38
            token outputs:surface
        }

        def Shader "STReader"
        {
            uniform token info:id = "UsdPrimvarReader_float2"
            token inputs:varname = "st"
            float2 outputs:result
        }

        def Shader "DiffuseTexture"
        {
            uniform token info:id = "UsdUVTexture"
            asset inputs:file = @d20_diffuse.png@
            float2 inputs:st.connect = </D20/Materials/DieMaterial/STReader.outputs:result>
            token inputs:wrapS = "repeat"
            token inputs:wrapT = "repeat"
            float3 outputs:rgb
        }
    }
}
}
