#usda 1.0
(
defaultPrim = "D4"
metersPerUnit = 1
upAxis = "Y"
doc = "Dice Throw – d4 die. Generated by Tools/GenerateDiceModels.swift; open in Reality Composer Pro."
)

def Xform "D4" (
kind = "component"
)
{
def Mesh "Geometry"
{
    int[] faceVertexCounts = [3, 3, 3, 3, 4, 4, 4, 4, 4, 4, 3, 3, 3, 3]
    int[] faceVertexIndices = [0, 1, 2, 3, 4, 5, 6, 7, 8, 9, 10, 11, 12, 13, 14, 15, 16, 17, 18, 19, 20, 21, 22, 23, 24, 25, 26, 27, 28, 29, 30, 31, 32, 33, 34, 35, 36, 37, 38, 39, 40, 41, 42, 43, 44, 45, 46, 47]
    point3f[] points = [(0.41431, 0.41431, 0.37828), (0.41431, -0.37828, -0.41431), (-0.37828, 0.41431, -0.41431), (0.41431, 0.37828, 0.41431), (-0.37828, -0.41431, 0.41431), (0.41431, -0.41431, -0.37828), (0.37828, 0.41431, 0.41431), (-0.41431, 0.41431, -0.37828), (-0.41431, -0.37828, 0.41431), (0.37828, -0.41431, -0.41431), (-0.41431, -0.41431, 0.37828), (-0.41431, 0.37828, -0.41431), (0.41431, 0.37828, 0.41431), (0.41431, -0.41431, -0.37828), (0.41431, -0.37828, -0.41431), (0.41431, 0.41431, 0.37828), (-0.41431, 0.41431, -0.37828), (0.37828, 0.41431, 0.41431), (0.41431, 0.41431, 0.37828), (-0.37828, 0.41431, -0.41431), (0.37828, 0.41431, 0.41431), (-0.41431, -0.37828, 0.41431), (-0.37828, -0.41431, 0.41431), (0.41431, 0.37828, 0.41431), (-0.41431, -0.41431, 0.37828), (0.37828, -0.41431, -0.41431), (0.41431, -0.41431, -0.37828), (-0.37828, -0.41431, 0.41431), (0.37828, -0.41431, -0.41431), (-0.41431, 0.37828, -0.41431), (-0.37828, 0.41431, -0.41431), (0.41431, -0.37828, -0.41431), (-0.41431, 0.37828, -0.41431), (-0.41431, -0.41431, 0.37828), (-0.41431, -0.37828, 0.41431), (-0.41431, 0.41431, -0.37828), (0.37828, 0.41431, 0.41431), (0.41431, 0.37828, 0.41431), (0.41431, 0.41431, 0.37828), (0.41431, -0.41431, -0.37828), (0.37828, -0.41431, -0.41431), (0.41431, -0.37828, -0.41431), (-0.41431, 0.37828, -0.41431), (-0.41431, 0.41431, -0.37828), (-0.37828, 0.41431, -0.41431), (-0.41431, -0.37828, 0.41431), (-0.41431, -0.41431, 0.37828), (-0.37828, -0.41431, 0.41431)]
    normal3f[] normals = [(0.57735, 0.57735, -0.57735), (0.57735, 0.57735, -0.57735), (0.57735, 0.57735, -0.57735), (0.57735, -0.57735, 0.57735), (0.57735, -0.57735, 0.57735), (0.57735, -0.57735, 0.57735), (-0.57735, 0.57735, 0.57735), (-0.57735, 0.57735, 0.57735), (-0.57735, 0.57735, 0.57735), (-0.57735, -0.57735, -0.57735), (-0.57735, -0.57735, -0.57735), (-0.57735, -0.57735, -0.57735), (1, 0, 0), (1, 0, 0), (1, 0, 0), (1, 0, 0), (0, 1, 0), (0, 1, 0), (0, 1, 0), (0, 1, 0), (0, 0, 1), (0, 0, 1), (0, 0, 1), (0, 0, 1), (0, -1, 0), (0, -1, 0), (0, -1, 0), (0, -1, 0), (0, 0, -1), (0, 0, -1), (0, 0, -1), (0, 0, -1), (-1, 0, 0), (-1, 0, 0), (-1, 0, 0), (-1, 0, 0), (0.57735, 0.57735, 0.57735), (0.57735, 0.57735, 0.57735), (0.57735, 0.57735, 0.57735), (0.57735, -0.57735, -0.57735), (0.57735, -0.57735, -0.57735), (0.57735, -0.57735, -0.57735), (-0.57735, 0.57735, -0.57735), (-0.57735, 0.57735, -0.57735), (-0.57735, 0.57735, -0.57735), (-0.57735, -0.57735, 0.57735), (-0.57735, -0.57735, 0.57735), (-0.57735, -0.57735, 0.57735)] (
        interpolation = "faceVarying"
    )
    texCoord2f[] primvars:st = [(0.30667, 0.75), (0.096667, 0.93187), (0.096667, 0.56813), (0.64, 0.75), (0.43, 0.93187), (0.43, 0.56813), (0.97333, 0.75), (0.76333, 0.93187), (0.76333, 0.56813), (0.30667, 0.25), (0.096667, 0.43187), (0.096667, 0.068135), (0.64, 0.25), (0.36058, 0.26905), (0.36, 0.25), (0.63942, 0.23095), (0.64, 0.25), (0.36058, 0.26905), (0.36, 0.25), (0.63942, 0.23095), (0.64, 0.25), (0.36058, 0.26905), (0.36, 0.25), (0.63942, 0.23095), (0.64, 0.25), (0.36058, 0.26905), (0.36, 0.25), (0.63942, 0.23095), (0.64, 0.25), (0.36058, 0.26905), (0.36, 0.25), (0.63942, 0.23095), (0.64, 0.25), (0.36058, 0.26905), (0.36, 0.25), (0.63942, 0.23095), (0.64, 0.25), (0.43, 0.43187), (0.43, 0.068135), (0.64, 0.25), (0.43, 0.43187), (0.43, 0.068135), (0.64, 0.25), (0.43, 0.43187), (0.43, 0.068135), (0.64, 0.25), (0.43, 0.43187), (0.43, 0.068135)] (
        interpolation = "faceVarying"
    )
    uniform token subdivisionScheme = "none"
    rel material:binding = </D4/Materials/DieMaterial>
}

def Scope "Materials"
{
    def Material "DieMaterial"
    {
        token outputs:surface.connect = </D4/Materials/DieMaterial/PBRShader.outputs:surface>

        def Shader "PBRShader"
        {
            uniform token info:id = "UsdPreviewSurface"
            color3f inputs:diffuseColor.connect = </D4/Materials/DieMaterial/DiffuseTexture.outputs:rgb>
            float inputs:metallic = 0
            float inputs:roughness = 0.38
            token outputs:surface
        }

        def Shader "STReader"
        {
            uniform token info:id = "UsdPrimvarReader_float2"
            token inputs:varname = "st"
            float2 outputs:result
        }

        def Shader "DiffuseTexture"
        {
            uniform token info:id = "UsdUVTexture"
            asset inputs:file = @d4_diffuse.png@
            float2 inputs:st.connect = </D4/Materials/DieMaterial/STReader.outputs:result>
            token inputs:wrapS = "repeat"
            token inputs:wrapT = "repeat"
            float3 outputs:rgb
        }
    }
}
}
