#usda 1.0
(
defaultPrim = "D6"
metersPerUnit = 1
upAxis = "Y"
doc = "Dice Throw – d6 die. Generated by Tools/GenerateDiceModels.swift; open in Reality Composer Pro."
)

def Xform "D6" (
kind = "component"
)
{
def Mesh "Geometry"
{
    int[] faceVertexCounts = [4, 4, 4, 4, 4, 4, 4, 4, 4, 4, 4, 4, 4, 4, 4, 4, 4, 4, 3, 3, 3, 3, 3, 3, 3, 3]
    int[] faceVertexIndices = [0, 1, 2, 3, 4, 5, 6, 7, 8, 9, 10, 11, 12, 13, 14, 15, 16, 17, 18, 19, 20, 21, 22, 23, 24, 25, 26, 27, 28, 29, 30, 31, 32, 33, 34, 35, 36, 37, 38, 39, 40, 41, 42, 43, 44, 45, 46, 47, 48, 49, 50, 51, 52, 53, 54, 55, 56, 57, 58, 59, 60, 61, 62, 63, 64, 65, 66, 67, 68, 69, 70, 71, 72, 73, 74, 75, 76, 77, 78, 79, 80, 81, 82, 83, 84, 85, 86, 87, 88, 89, 90, 91, 92, 93, 94, 95]
    point3f[] points = [(0.352, -0.352, 0.4), (0.352, 0.352, 0.4), (-0.352, 0.352, 0.4), (-0.352, -0.352, 0.4), (0.4, 0.352, -0.352), (0.4, 0.352, 0.352), (0.4, -0.352, 0.352), (0.4, -0.352, -0.352), (-0.352, -0.352, -0.4), (-0.352, 0.352, -0.4), (0.352, 0.352, -0.4), (0.352, -0.352, -0.4), (-0.4, -0.352, -0.352), (-0.4, -0.352, 0.352), (-0.4, 0.352, 0.352), (-0.4, 0.352, -0.352), (-0.352, 0.4, -0.352), (-0.352, 0.4, 0.352), (0.352, 0.4, 0.352), (0.352, 0.4, -0.352), (0.352, -0.4, -0.352), (0.352, -0.4, 0.352), (-0.352, -0.4, 0.352), (-0.352, -0.4, -0.352), (-0.352, 0.4, -0.352), (0.352, 0.4, -0.352), (0.352, 0.352, -0.4), (-0.352, 0.352, -0.4), (-0.4, 0.352, 0.352), (-0.4, -0.352, 0.352), (-0.352, -0.352, 0.4), (-0.352, 0.352, 0.4), (-0.352, -0.4, 0.352), (0.352, -0.4, 0.352), (0.352, -0.352, 0.4), (-0.352, -0.352, 0.4), (0.352, -0.352, -0.4), (0.352, 0.352, -0.4), (0.4, 0.352, -0.352), (0.4, -0.352, -0.352), (0.352, 0.4, 0.352), (-0.352, 0.4, 0.352), (-0.352, 0.352, 0.4), (0.352, 0.352, 0.4), (-0.352, 0.4, 0.352), (-0.352, 0.4, -0.352), (-0.4, 0.352, -0.352), (-0.4, 0.352, 0.352), (0.352, -0.4, 0.352), (0.352, -0.4, -0.352), (0.4, -0.352, -0.352), (0.4, -0.352, 0.352), (0.352, 0.4, -0.352), (0.352, 0.4, 0.352), (0.4, 0.352, 0.352), (0.4, 0.352, -0.352), (-0.4, -0.352, -0.352), (-0.4, 0.352, -0.352), (-0.352, 0.352, -0.4), (-0.352, -0.352, -0.4), (0.352, -0.4, -0.352), (-0.352, -0.4, -0.352), (-0.352, -0.352, -0.4), (0.352, -0.352, -0.4), (0.4, -0.352, 0.352), (0.4, 0.352, 0.352), (0.352, 0.352, 0.4), (0.352, -0.352, 0.4), (-0.352, -0.4, -0.352), (-0.352, -0.4, 0.352), (-0.4, -0.352, 0.352), (-0.4, -0.352, -0.352), (-0.352, -0.4, -0.352), (-0.4, -0.352, -0.352), (-0.352, -0.352, -0.4), (-0.4, -0.352, 0.352), (-0.352, -0.4, 0.352), (-0.352, -0.352, 0.4), (-0.4, 0.352, -0.352), (-0.352, 0.4, -0.352), (-0.352, 0.352, -0.4), (-0.352, 0.4, 0.352), (-0.4, 0.352, 0.352), (-0.352, 0.352, 0.4), (0.352, -0.4, -0.352), (0.352, -0.352, -0.4), (0.4, -0.352, -0.352), (0.352, -0.4, 0.352), (0.4, -0.352, 0.352), (0.352, -0.352, 0.4), (0.352, 0.352, -0.4), (0.352, 0.4, -0.352), (0.4, 0.352, -0.352), (0.4, 0.352, 0.352), (0.352, 0.4, 0.352), (0.352, 0.352, 0.4)]
    normal3f[] normals = [(0, -0, 1), (0, -0, 1), (0, -0, 1), (0, -0, 1), (1, 0, -0), (1, 0, -0), (1, 0, -0), (1, 0, -0), (0, 0, -1), (0, 0, -1), (0, 0, -1), (0, 0, -1), (-1, 0, 0), (-1, 0, 0), (-1, 0, 0), (-1, 0, 0), (0, 1, 0), (0, 1, 0), (0, 1, 0), (0, 1, 0), (0, -1, 0), (0, -1, 0), (0, -1, 0), (0, -1, 0), (0, 0.70711, -0.70711), (0, 0.70711, -0.70711), (0, 0.70711, -0.70711), (0, 0.70711, -0.70711), (-0.70711, 0, 0.70711), (-0.70711, 0, 0.70711), (-0.70711, 0, 0.70711), (-0.70711, 0, 0.70711), (0, -0.70711, 0.70711), (0, -0.70711, 0.70711), (0, -0.70711, 0.70711), (0, -0.70711, 0.70711), (0.70711, 0, -0.70711), (0.70711, 0, -0.70711), (0.70711, 0, -0.70711), (0.70711, 0, -0.70711), (0, 0.70711, 0.70711), (0, 0.70711, 0.70711), (0, 0.70711, 0.70711), (0, 0.70711, 0.70711), (-0.70711, 0.70711, 0), (-0.70711, 0.70711, 0), (-0.70711, 0.70711, 0), (-0.70711, 0.70711, 0), (0.70711, -0.70711, 0), (0.70711, -0.70711, 0), (0.70711, -0.70711, 0), (0.70711, -0.70711, 0), (0.70711, 0.70711, 0), (0.70711, 0.70711, 0), (0.70711, 0.70711, 0), (0.70711, 0.70711, 0), (-0.70711, 0, -0.70711), (-0.70711, 0, -0.70711), (-0.70711, 0, -0.70711), (-0.70711, 0, -0.70711), (0, -0.70711, -0.70711), (0, -0.70711, -0.70711), (0, -0.70711, -0.70711), (0, -0.70711, -0.70711), (0.70711, 0, 0.70711), (0.70711, 0, 0.70711), (0.70711, 0, 0.70711), (0.70711, 0, 0.70711), (-0.70711, -0.70711, 0), (-0.70711, -0.70711, 0), (-0.70711, -0.70711, 0), (-0.70711, -0.70711, 0), (-0.57735, -0.57735, -0.57735), (-0.57735, -0.57735, -0.57735), (-0.57735, -0.57735, -0.57735), (-0.57735, -0.57735, 0.57735), (-0.57735, -0.57735, 0.57735), (-0.57735, -0.57735, 0.57735), (-0.57735, 0.57735, -0.57735), (-0.57735, 0.57735, -0.57735), (-0.57735, 0.57735, -0.57735), (-0.57735, 0.57735, 0.57735), (-0.57735, 0.57735, 0.57735), (-0.57735, 0.57735, 0.57735), (0.57735, -0.57735, -0.57735), (0.57735, -0.57735, -0.57735), (0.57735, -0.57735, -0.57735), (0.57735, -0.57735, 0.57735), (0.57735, -0.57735, 0.57735), (0.57735, -0.57735, 0.57735), (0.57735, 0.57735, -0.57735), (0.57735, 0.57735, -0.57735), (0.57735, 0.57735, -0.57735), (0.57735, 0.57735, 0.57735), (0.57735, 0.57735, 0.57735), (0.57735, 0.57735, 0.57735)] (
        interpolation = "faceVarying"
    )
    texCoord2f[] primvars:st = [(0.30667, 0.83333), (0.16667, 0.97333), (0.026667, 0.83333), (0.16667, 0.69333), (0.64, 0.83333), (0.5, 0.97333), (0.36, 0.83333), (0.5, 0.69333), (0.97333, 0.83333), (0.83333, 0.97333), (0.69333, 0.83333), (0.83333, 0.69333), (0.30667, 0.5), (0.16667, 0.64), (0.026667, 0.5), (0.16667, 0.36), (0.64, 0.5), (0.5, 0.64), (0.36, 0.5), (0.5, 0.36), (0.97333, 0.5), (0.83333, 0.64), (0.69333, 0.5), (0.83333, 0.36), (0.30667, 0.16667), (0.029246, 0.19342), (0.026667, 0.16667), (0.30409, 0.13992), (0.30667, 0.16667), (0.029246, 0.19342), (0.026667, 0.16667), (0.30409, 0.13992), (0.30667, 0.16667), (0.029246, 0.19342), (0.026667, 0.16667), (0.30409, 0.13992), (0.30667, 0.16667), (0.029246, 0.19342), (0.026667, 0.16667), (0.30409, 0.13992), (0.30667, 0.16667), (0.029246, 0.19342), (0.026667, 0.16667), (0.30409, 0.13992), (0.30667, 0.16667), (0.029246, 0.19342), (0.026667, 0.16667), (0.30409, 0.13992), (0.30667, 0.16667), (0.029246, 0.19342), (0.026667, 0.16667), (0.30409, 0.13992), (0.30667, 0.16667), (0.029246, 0.19342), (0.026667, 0.16667), (0.30409, 0.13992), (0.30667, 0.16667), (0.029246, 0.19342), (0.026667, 0.16667), (0.30409, 0.13992), (0.30667, 0.16667), (0.029246, 0.19342), (0.026667, 0.16667), (0.30409, 0.13992), (0.30667, 0.16667), (0.029246, 0.19342), (0.026667, 0.16667), (0.30409, 0.13992), (0.30667, 0.16667), (0.029246, 0.19342), (0.026667, 0.16667), (0.30409, 0.13992), (0.30667, 0.16667), (0.096667, 0.28791), (0.096667, 0.045423), (0.30667, 0.16667), (0.096667, 0.28791), (0.096667, 0.045423), (0.30667, 0.16667), (0.096667, 0.28791), (0.096667, 0.045423), (0.30667, 0.16667), (0.096667, 0.28791), (0.096667, 0.045423), (0.30667, 0.16667), (0.096667, 0.28791), (0.096667, 0.045423), (0.30667, 0.16667), (0.096667, 0.28791), (0.096667, 0.045423), (0.30667, 0.16667), (0.096667, 0.28791), (0.096667, 0.045423), (0.30667, 0.16667), (0.096667, 0.28791), (0.096667, 0.045423)] (
        interpolation = "faceVarying"
    )
    uniform token subdivisionScheme = "none"
    rel material:binding = </D6/Materials/DieMaterial>
}

def Scope "Materials"
{
    def Material "DieMaterial"
    {
        token outputs:surface.connect = </D6/Materials/DieMaterial/PBRShader.outputs:surface>

        def Shader "PBRShader"
        {
            uniform token info:id = "UsdPreviewSurface"
            color3f inputs:diffuseColor.connect = </D6/Materials/DieMaterial/DiffuseTexture.outputs:rgb>
            float inputs:metallic = 0
            float inputs:roughness = 0.38
            token outputs:surface
        }

        def Shader "STReader"
        {
            uniform token info:id = "UsdPrimvarReader_float2"
            token inputs:varname = "st"
            float2 outputs:result
        }

        def Shader "DiffuseTexture"
        {
            uniform token info:id = "UsdUVTexture"
            asset inputs:file = @d6_diffuse.png@
            float2 inputs:st.connect = </D6/Materials/DieMaterial/STReader.outputs:result>
            token inputs:wrapS = "repeat"
            token inputs:wrapT = "repeat"
            float3 outputs:rgb
        }
    }
}
}
