#usda 1.0
(
defaultPrim = "D8"
metersPerUnit = 1
upAxis = "Y"
doc = "Dice Throw – d8 die. Generated by Tools/GenerateDiceModels.swift; open in Reality Composer Pro."
)

def Xform "D8" (
kind = "component"
)
{
def Mesh "Geometry"
{
    int[] faceVertexCounts = [3, 3, 3, 3, 3, 3, 3, 3, 4, 4, 4, 4, 4, 4, 4, 4, 4, 4, 4, 4, 4, 4, 4, 4, 4, 4]
    int[] faceVertexIndices = [0, 1, 2, 3, 4, 5, 6, 7, 8, 9, 10, 11, 12, 13, 14, 15, 16, 17, 18, 19, 20, 21, 22, 23, 24, 25, 26, 27, 28, 29, 30, 31, 32, 33, 34, 35, 36, 37, 38, 39, 40, 41, 42, 43, 44, 45, 46, 47, 48, 49, 50, 51, 52, 53, 54, 55, 56, 57, 58, 59, 60, 61, 62, 63, 64, 65, 66, 67, 68, 69, 70, 71, 72, 73, 74, 75, 76, 77, 78, 79, 80, 81, 82, 83, 84, 85, 86, 87, 88, 89, 90, 91, 92, 93, 94, 95]
    point3f[] points = [(0.6256, 0.0272, 0.0272), (0.0272, 0.6256, 0.0272), (0.0272, 0.0272, 0.6256), (-0.0272, 0.6256, 0.0272), (-0.6256, 0.0272, 0.0272), (-0.0272, 0.0272, 0.6256), (-0.6256, -0.0272, 0.0272), (-0.0272, -0.6256, 0.0272), (-0.0272, -0.0272, 0.6256), (0.0272, -0.6256, 0.0272), (0.6256, -0.0272, 0.0272), (0.0272, -0.0272, 0.6256), (0.0272, 0.6256, -0.0272), (0.6256, 0.0272, -0.0272), (0.0272, 0.0272, -0.6256), (-0.6256, 0.0272, -0.0272), (-0.0272, 0.6256, -0.0272), (-0.0272, 0.0272, -0.6256), (-0.0272, -0.6256, -0.0272), (-0.6256, -0.0272, -0.0272), (-0.0272, -0.0272, -0.6256), (0.6256, -0.0272, -0.0272), (0.0272, -0.6256, -0.0272), (0.0272, -0.0272, -0.6256), (-0.0272, 0.6256, -0.0272), (-0.6256, 0.0272, -0.0272), (-0.6256, 0.0272, 0.0272), (-0.0272, 0.6256, 0.0272), (0.0272, -0.6256, -0.0272), (0.6256, -0.0272, -0.0272), (0.6256, -0.0272, 0.0272), (0.0272, -0.6256, 0.0272), (0.6256, -0.0272, -0.0272), (0.0272, -0.0272, -0.6256), (0.0272, 0.0272, -0.6256), (0.6256, 0.0272, -0.0272), (-0.0272, -0.0272, -0.6256), (-0.6256, -0.0272, -0.0272), (-0.6256, 0.0272, -0.0272), (-0.0272, 0.0272, -0.6256), (-0.6256, -0.0272, 0.0272), (-0.0272, -0.0272, 0.6256), (-0.0272, 0.0272, 0.6256), (-0.6256, 0.0272, 0.0272), (0.0272, -0.0272, -0.6256), (0.0272, -0.6256, -0.0272), (-0.0272, -0.6256, -0.0272), (-0.0272, -0.0272, -0.6256), (-0.0272, 0.6256, 0.0272), (-0.0272, 0.0272, 0.6256), (0.0272, 0.0272, 0.6256), (0.0272, 0.6256, 0.0272), (0.0272, -0.0272, 0.6256), (0.6256, -0.0272, 0.0272), (0.6256, 0.0272, 0.0272), (0.0272, 0.0272, 0.6256), (-0.6256, -0.0272, -0.0272), (-0.0272, -0.6256, -0.0272), (-0.0272, -0.6256, 0.0272), (-0.6256, -0.0272, 0.0272), (0.0272, -0.6256, 0.0272), (0.0272, -0.0272, 0.6256), (-0.0272, -0.0272, 0.6256), (-0.0272, -0.6256, 0.0272), (0.6256, 0.0272, -0.0272), (0.0272, 0.6256, -0.0272), (0.0272, 0.6256, 0.0272), (0.6256, 0.0272, 0.0272), (-0.0272, 0.0272, -0.6256), (-0.0272, 0.6256, -0.0272), (0.0272, 0.6256, -0.0272), (0.0272, 0.0272, -0.6256), (0.6256, -0.0272, 0.0272), (0.6256, -0.0272, -0.0272), (0.6256, 0.0272, -0.0272), (0.6256, 0.0272, 0.0272), (-0.6256, 0.0272, -0.0272), (-0.6256, -0.0272, -0.0272), (-0.6256, -0.0272, 0.0272), (-0.6256, 0.0272, 0.0272), (0.0272, 0.6256, -0.0272), (-0.0272, 0.6256, -0.0272), (-0.0272, 0.6256, 0.0272), (0.0272, 0.6256, 0.0272), (-0.0272, -0.6256, -0.0272), (0.0272, -0.6256, -0.0272), (0.0272, -0.6256, 0.0272), (-0.0272, -0.6256, 0.0272), (-0.0272, 0.0272, 0.6256), (-0.0272, -0.0272, 0.6256), (0.0272, -0.0272, 0.6256), (0.0272, 0.0272, 0.6256), (0.0272, -0.0272, -0.6256), (-0.0272, -0.0272, -0.6256), (-0.0272, 0.0272, -0.6256), (0.0272, 0.0272, -0.6256)]
    normal3f[] normals = [(0.57735, 0.57735, 0.57735), (0.57735, 0.57735, 0.57735), (0.57735, 0.57735, 0.57735), (-0.57735, 0.57735, 0.57735), (-0.57735, 0.57735, 0.57735), (-0.57735, 0.57735, 0.57735), (-0.57735, -0.57735, 0.57735), (-0.57735, -0.57735, 0.57735), (-0.57735, -0.57735, 0.57735), (0.57735, -0.57735, 0.57735), (0.57735, -0.57735, 0.57735), (0.57735, -0.57735, 0.57735), (0.57735, 0.57735, -0.57735), (0.57735, 0.57735, -0.57735), (0.57735, 0.57735, -0.57735), (-0.57735, 0.57735, -0.57735), (-0.57735, 0.57735, -0.57735), (-0.57735, 0.57735, -0.57735), (-0.57735, -0.57735, -0.57735), (-0.57735, -0.57735, -0.57735), (-0.57735, -0.57735, -0.57735), (0.57735, -0.57735, -0.57735), (0.57735, -0.57735, -0.57735), (0.57735, -0.57735, -0.57735), (-0.70711, 0.70711, 1.4262e-07), (-0.70711, 0.70711, 1.4262e-07), (-0.70711, 0.70711, 1.4262e-07), (-0.70711, 0.70711, 1.4262e-07), (0.70711, -0.70711, 1.4262e-07), (0.70711, -0.70711, 1.4262e-07), (0.70711, -0.70711, 1.4262e-07), (0.70711, -0.70711, 1.4262e-07), (0.70711, 1.4262e-07, -0.70711), (0.70711, 1.4262e-07, -0.70711), (0.70711, 1.4262e-07, -0.70711), (0.70711, 1.4262e-07, -0.70711), (-0.70711, -1.4262e-07, -0.70711), (-0.70711, -1.4262e-07, -0.70711), (-0.70711, -1.4262e-07, -0.70711), (-0.70711, -1.4262e-07, -0.70711), (-0.70711, 1.4262e-07, 0.70711), (-0.70711, 1.4262e-07, 0.70711), (-0.70711, 1.4262e-07, 0.70711), (-0.70711, 1.4262e-07, 0.70711), (-1.4262e-07, -0.70711, -0.70711), (-1.4262e-07, -0.70711, -0.70711), (-1.4262e-07, -0.70711, -0.70711), (-1.4262e-07, -0.70711, -0.70711), (-1.4262e-07, 0.70711, 0.70711), (-1.4262e-07, 0.70711, 0.70711), (-1.4262e-07, 0.70711, 0.70711), (-1.4262e-07, 0.70711, 0.70711), (0.70711, -1.4262e-07, 0.70711), (0.70711, -1.4262e-07, 0.70711), (0.70711, -1.4262e-07, 0.70711), (0.70711, -1.4262e-07, 0.70711), (-0.70711, -0.70711, -1.4262e-07), (-0.70711, -0.70711, -1.4262e-07), (-0.70711, -0.70711, -1.4262e-07), (-0.70711, -0.70711, -1.4262e-07), (1.4262e-07, -0.70711, 0.70711), (1.4262e-07, -0.70711, 0.70711), (1.4262e-07, -0.70711, 0.70711), (1.4262e-07, -0.70711, 0.70711), (0.70711, 0.70711, -1.4262e-07), (0.70711, 0.70711, -1.4262e-07), (0.70711, 0.70711, -1.4262e-07), (0.70711, 0.70711, -1.4262e-07), (1.4262e-07, 0.70711, -0.70711), (1.4262e-07, 0.70711, -0.70711), (1.4262e-07, 0.70711, -0.70711), (1.4262e-07, 0.70711, -0.70711), (1, 0, 0), (1, 0, 0), (1, 0, 0), (1, 0, 0), (-1, 0, 0), (-1, 0, 0), (-1, 0, 0), (-1, 0, 0), (0, 1, 0), (0, 1, 0), (0, 1, 0), (0, 1, 0), (0, -1, 0), (0, -1, 0), (0, -1, 0), (0, -1, 0), (0, 0, 1), (0, 0, 1), (0, 0, 1), (0, 0, 1), (0, 0, -1), (0, 0, -1), (0, 0, -1), (0, 0, -1)] (
        interpolation = "faceVarying"
    )
    texCoord2f[] primvars:st = [(0.30667, 0.83333), (0.096667, 0.95458), (0.096667, 0.71209), (0.64, 0.83333), (0.43, 0.95458), (0.43, 0.71209), (0.97333, 0.83333), (0.76333, 0.95458), (0.76333, 0.71209), (0.30667, 0.5), (0.096667, 0.62124), (0.096667, 0.37876), (0.64, 0.5), (0.43, 0.62124), (0.43, 0.37876), (0.97333, 0.5), (0.76333, 0.62124), (0.76333, 0.37876), (0.30667, 0.16667), (0.096667, 0.28791), (0.096667, 0.045423), (0.64, 0.16667), (0.43, 0.28791), (0.43, 0.045423), (0.84231, 0.026955), (0.84231, 0.30638), (0.82435, 0.30638), (0.82435, 0.026955), (0.84231, 0.026955), (0.84231, 0.30638), (0.82435, 0.30638), (0.82435, 0.026955), (0.84231, 0.026955), (0.84231, 0.30638), (0.82435, 0.30638), (0.82435, 0.026955), (0.84231, 0.026955), (0.84231, 0.30638), (0.82435, 0.30638), (0.82435, 0.026955), (0.84231, 0.026955), (0.84231, 0.30638), (0.82435, 0.30638), (0.82435, 0.026955), (0.84231, 0.026955), (0.84231, 0.30638), (0.82435, 0.30638), (0.82435, 0.026955), (0.84231, 0.026955), (0.84231, 0.30638), (0.82435, 0.30638), (0.82435, 0.026955), (0.84231, 0.026955), (0.84231, 0.30638), (0.82435, 0.30638), (0.82435, 0.026955), (0.84231, 0.026955), (0.84231, 0.30638), (0.82435, 0.30638), (0.82435, 0.026955), (0.84231, 0.026955), (0.84231, 0.30638), (0.82435, 0.30638), (0.82435, 0.026955), (0.84231, 0.026955), (0.84231, 0.30638), (0.82435, 0.30638), (0.82435, 0.026955), (0.84231, 0.026955), (0.84231, 0.30638), (0.82435, 0.30638), (0.82435, 0.026955), (0.93233, 0.067672), (0.93233, 0.26566), (0.73434, 0.26566), (0.73434, 0.067672), (0.93233, 0.067672), (0.93233, 0.26566), (0.73434, 0.26566), (0.73434, 0.067672), (0.93233, 0.067672), (0.93233, 0.26566), (0.73434, 0.26566), (0.73434, 0.067672), (0.93233, 0.067672), (0.93233, 0.26566), (0.73434, 0.26566), (0.73434, 0.067672), (0.93233, 0.067672), (0.93233, 0.26566), (0.73434, 0.26566), (0.73434, 0.067672), (0.93233, 0.067672), (0.93233, 0.26566), (0.73434, 0.26566), (0.73434, 0.067672)] (
        interpolation = "faceVarying"
    )
    uniform token subdivisionScheme = "none"
    rel material:binding = </D8/Materials/DieMaterial>
}

def Scope "Materials"
{
    def Material "DieMaterial"
    {
        token outputs:surface.connect = </D8/Materials/DieMaterial/PBRShader.outputs:surface>

        def Shader "PBRShader"
        {
            uniform token info:id = "UsdPreviewSurface"
            color3f inputs:diffuseColor.connect = </D8/Materials/DieMaterial/DiffuseTexture.outputs:rgb>
            float inputs:metallic = 0
            float inputs:roughness = 0.38
            token outputs:surface
        }

        def Shader "STReader"
        {
            uniform token info:id = "UsdPrimvarReader_float2"
            token inputs:varname = "st"
            float2 outputs:result
        }

        def Shader "DiffuseTexture"
        {
            uniform token info:id = "UsdUVTexture"
            asset inputs:file = @d8_diffuse.png@
            float2 inputs:st.connect = </D8/Materials/DieMaterial/STReader.outputs:result>
            token inputs:wrapS = "repeat"
            token inputs:wrapT = "repeat"
            float3 outputs:rgb
        }
    }
}
}
