#usda 1.0
(
    defaultPrim = "Box"
    metersPerUnit = 1
    upAxis = "Y"
    doc = "Dice Throw – open wooden play box. Generated by Tools/GenerateBoxModel.swift from the real photographed wood-box texture; open in Reality Composer Pro. Reference asset only — the live game still renders the 2D WoodBorderView background."
)

def Xform "Box" (
    kind = "component"
)
{
    def Mesh "Geometry"
    {
        int[] faceVertexCounts = [4, 4, 4, 4, 4]
        int[] faceVertexIndices = [0, 1, 2, 3, 4, 5, 6, 7, 8, 9, 10, 11, 12, 13, 14, 15, 16, 17, 18, 19]
        point3f[] points = [(-2.3, 0, 5), (2.3, 0, 5), (2.3, 0, -4.4), (-2.3, 0, -4.4), (-2.3, 0, -4.4), (2.3, 0, -4.4), (2.3, 0.9, -4.4), (-2.3, 0.9, -4.4), (-2.3, 0.9, 5), (2.3, 0.9, 5), (2.3, 0, 5), (-2.3, 0, 5), (-2.3, 0.9, -4.4), (-2.3, 0.9, 5), (-2.3, 0, 5), (-2.3, 0, -4.4), (2.3, 0, -4.4), (2.3, 0, 5), (2.3, 0.9, 5), (2.3, 0.9, -4.4)]
        normal3f[] normals = [(0, 1, 0), (0, 1, 0), (0, 1, 0), (0, 1, 0), (0, 0, 1), (0, 0, 1), (0, 0, 1), (0, 0, 1), (0, 0, -1), (0, 0, -1), (0, 0, -1), (0, 0, -1), (1, 0, 0), (1, 0, 0), (1, 0, 0), (1, 0, 0), (-1, 0, 0), (-1, 0, 0), (-1, 0, 0), (-1, 0, 0)] (
            interpolation = "faceVarying"
        )
        texCoord2f[] primvars:st = [(0.098446, 0.94188), (0.91019, 0.94188), (0.91019, 0.058122), (0.098446, 0.058122), (0.098446, 0.94188), (0.91019, 0.94188), (0.91019, 1), (0.098446, 1), (0.098446, 0.058122), (0.91019, 0.058122), (0.91019, 0), (0.098446, 0), (0.098446, 0.058122), (0.098446, 0.94188), (0, 0.94188), (0, 0.058122), (1, 0.058122), (1, 0.94188), (0.91019, 0.94188), (0.91019, 0.058122)] (
            interpolation = "faceVarying"
        )
        uniform token subdivisionScheme = "none"
        rel material:binding = </Box/Materials/WoodMaterial>
    }

    def Scope "Materials"
    {
        def Material "WoodMaterial"
        {
            token outputs:surface.connect = </Box/Materials/WoodMaterial/PBRShader.outputs:surface>

            def Shader "PBRShader"
            {
                uniform token info:id = "UsdPreviewSurface"
                color3f inputs:diffuseColor.connect = </Box/Materials/WoodMaterial/DiffuseTexture.outputs:rgb>
                float inputs:metallic = 0
                float inputs:roughness = 0.85
                token outputs:surface
            }

            def Shader "STReader"
            {
                uniform token info:id = "UsdPrimvarReader_float2"
                token inputs:varname = "st"
                float2 outputs:result
            }

            def Shader "DiffuseTexture"
            {
                uniform token info:id = "UsdUVTexture"
                asset inputs:file = @box_diffuse.png@
                float2 inputs:st.connect = </Box/Materials/WoodMaterial/STReader.outputs:result>
                token inputs:wrapS = "clamp"
                token inputs:wrapT = "clamp"
                float3 outputs:rgb
            }
        }
    }
}
